<svg version="1.1" id="Layer_1" xmlns="http://www.w3.org/2000/svg" xmlns:xlink="http://www.w3.org/1999/xlink" x="0px" y="0px"
	 width="100%" viewBox="0 0 559 897" enable-background="new 0 0 559 897" xml:space="preserve">
<path fill="#FEFBF8" opacity="1.000000" stroke="none" 
	d="
M1.000000,326.000000 
	C1.000000,217.333328 1.000000,109.166664 1.000000,1.000000 
	C187.333328,1.000000 373.666656,1.000000 560.000000,1.000000 
	C560.000000,300.000000 560.000000,599.000000 560.000000,898.000000 
	C373.666656,898.000000 187.333328,898.000000 1.000000,898.000000 
	C1.000000,707.500000 1.000000,517.000000 1.000000,326.000000 
M278.985504,488.711151 
	C279.626221,489.167633 280.266968,489.624146 280.997894,490.007904 
	C280.997894,490.007904 280.917755,490.092133 280.936554,490.763672 
	C282.582245,492.220825 284.227905,493.677979 286.233673,495.458313 
	C286.506775,495.630493 286.787140,495.789856 287.084351,496.612152 
	C288.359497,497.770477 289.634644,498.928833 291.349762,500.449066 
	C291.877930,500.985870 292.406067,501.522644 292.918427,502.746552 
	C294.321442,503.776764 295.724457,504.806946 297.070282,505.931519 
	C297.070282,505.931519 297.164856,505.874695 297.097168,506.576324 
	C299.465851,507.946930 301.834503,509.317566 304.243988,510.764526 
	C304.243988,510.764526 304.326965,510.789124 304.279205,511.473297 
	C305.933563,512.854797 307.587921,514.236267 309.288788,515.716309 
	C309.288788,515.716309 309.387238,515.763062 309.307068,516.453186 
	C310.383148,517.410034 311.343842,518.569763 312.568115,519.266052 
	C313.766541,519.947571 315.233551,520.156921 316.582611,520.573547 
	C316.970642,519.245422 317.617676,517.931824 317.692780,516.586243 
	C317.849091,513.786743 317.530182,510.955780 317.765076,508.167969 
	C317.859283,507.049805 318.897339,506.011139 319.467133,505.502563 
	C319.604095,506.037811 319.741058,506.573090 319.950012,507.856018 
	C321.484711,510.677979 323.019409,513.499939 324.705109,516.708557 
	C324.705109,516.708557 324.980499,517.019226 325.050995,517.733093 
	C328.263489,521.565857 331.475983,525.398682 334.742615,529.259521 
	C334.742615,529.259521 334.771484,529.313293 334.901093,529.987671 
	C337.695740,532.496460 340.490417,535.005188 343.362579,537.646301 
	C343.362579,537.646301 343.494720,537.724121 343.367065,538.393555 
	C346.217194,540.296204 349.067322,542.198792 352.307220,544.389893 
	C352.590332,544.546082 352.868896,544.709961 353.129333,545.575134 
	C355.420349,546.793823 357.711395,548.012573 360.544128,549.354614 
	C360.913391,549.381775 361.282654,549.408936 361.891937,550.067871 
	C362.860962,550.903503 363.703491,552.011536 364.819824,552.529846 
	C371.294250,555.535706 377.833099,558.402771 384.946503,561.440918 
	C386.169067,561.481995 387.391602,561.523010 388.885162,562.211304 
	C391.657349,563.030212 394.429535,563.849121 397.234161,564.759216 
	C397.234161,564.759216 397.315796,564.811157 397.212891,565.493896 
	C397.913727,565.772888 398.614532,566.051819 400.097473,566.408569 
	C401.408508,566.464294 402.719574,566.520081 404.213623,567.319702 
	C405.731628,568.037842 407.192749,568.947998 408.783844,569.419312 
	C410.318268,569.873718 411.987274,569.871887 413.596436,570.076294 
	C416.837860,570.487976 420.078735,570.903564 424.074463,571.375183 
	C424.806885,571.517578 425.539307,571.659973 426.266327,572.549133 
	C427.826019,573.167847 429.338745,574.040955 430.957458,574.339600 
	C432.892975,574.696655 434.948578,574.372498 436.900818,574.674744 
	C444.616394,575.869446 452.311859,577.193787 460.742523,578.529053 
	C461.715607,578.527344 462.688721,578.525635 463.877380,578.978943 
	C464.572937,578.842590 465.268463,578.706238 466.650574,578.611450 
	C467.108826,578.601013 467.567078,578.590576 468.346039,579.075195 
	C469.219177,578.910583 470.092346,578.745972 471.653381,578.618591 
	C472.112335,578.607605 472.571259,578.596619 473.592407,579.125977 
	C482.726532,579.978027 491.847229,581.284607 500.998535,581.554199 
	C510.132751,581.823303 519.393738,582.448303 528.474304,581.106323 
	C528.486023,580.471802 528.497681,579.837341 528.509338,579.202820 
	C527.559509,579.011108 526.609680,578.819397 524.922668,578.538330 
	C524.195435,578.423645 523.468262,578.309021 522.729614,577.481201 
	C519.712097,576.212769 516.694580,574.944336 513.211914,573.444763 
	C513.063904,573.355042 512.915833,573.265320 512.795532,572.462402 
	C509.491058,571.021545 506.186615,569.580627 502.580658,567.651978 
	C502.165741,567.273682 501.750824,566.895386 500.986542,565.948120 
	C497.899597,564.473450 494.812683,562.998718 491.296082,561.322632 
	C491.296082,561.322632 490.882538,561.089905 490.889862,560.356750 
	C489.187012,559.678650 487.484192,559.000549 485.762482,558.239746 
	C485.762482,558.239746 485.686951,558.201172 485.804962,557.510071 
	C481.807098,555.430969 477.809235,553.351868 473.791656,551.206177 
	C473.791656,551.206177 473.724915,551.186951 473.766022,550.487488 
	C468.523804,546.969055 463.281555,543.450623 457.658905,539.636963 
	C457.381592,539.475342 457.103394,539.315125 456.831238,538.450012 
	C449.923492,533.268311 443.015747,528.086670 436.011963,522.993896 
	C436.011963,522.993896 436.093414,522.891724 436.020081,522.225647 
	C434.364868,520.796875 432.709686,519.368042 430.587646,517.607239 
	C430.061035,517.066528 429.534424,516.525879 429.026520,515.302368 
	C427.635223,514.269897 426.243958,513.237366 424.854126,512.144714 
	C424.854126,512.144714 424.793945,512.142761 424.866669,511.451904 
	C423.184143,510.053558 421.501617,508.655182 419.805725,507.191498 
	C419.805725,507.191498 419.740387,507.178131 419.834473,506.507294 
	C419.159546,506.095795 418.484619,505.684326 417.791077,505.204285 
	C417.791077,505.204285 417.721283,505.190918 417.819275,504.514893 
	C416.551208,503.332367 415.283173,502.149841 413.710632,500.712006 
	C413.710632,500.712006 413.347778,500.550079 413.171387,499.905029 
	C411.381042,498.362457 409.590668,496.819855 407.788940,495.209137 
	C407.788940,495.209137 407.722626,495.189819 407.821655,494.502075 
	C406.168549,493.055328 404.515442,491.608582 402.606781,489.750519 
	C402.455048,489.462799 402.266296,489.201843 402.007965,488.291504 
	C400.638336,487.235748 399.268738,486.179993 397.618195,484.610260 
	C397.040558,484.104858 396.462921,483.599457 395.894196,482.418884 
	C394.624817,481.251312 393.355408,480.083710 392.000000,479.000000 
	C392.000000,479.000000 392.083130,478.913483 391.953094,478.198425 
	C388.936493,472.047974 384.685394,466.998108 378.697266,463.297150 
	C378.697266,463.297150 378.571991,463.213593 378.732025,462.476746 
	C377.096100,460.399384 375.460205,458.322021 373.810638,456.185486 
	C373.810638,456.185486 373.750519,456.177002 373.799103,455.498383 
	C372.548584,454.317871 371.298065,453.137360 370.001221,452.000000 
	C370.001221,452.000000 370.041656,451.951752 369.916748,451.215149 
	C366.210999,446.233002 362.505249,441.250885 358.799011,436.203583 
	C358.799011,436.203583 358.739716,436.176575 358.867859,435.515930 
	C358.179382,435.108734 357.490906,434.701538 356.769897,434.222382 
	C356.769897,434.222382 356.693634,434.201935 356.706848,433.488647 
	C356.028961,432.851471 355.460022,431.923645 354.656219,431.622253 
	C346.801270,428.676910 338.907104,425.836151 330.432800,422.615662 
	C329.749756,422.552704 329.066681,422.489716 328.135590,421.794617 
	C322.060852,417.823578 315.924500,413.942047 309.947296,409.829224 
	C308.052460,408.525421 306.582153,406.604645 304.917542,404.966217 
	C305.256653,404.448517 305.595764,403.930786 305.934906,403.413086 
	C307.893372,403.856415 309.842010,404.351715 311.813599,404.725983 
	C313.294952,405.007202 314.805756,405.133026 317.117310,405.386627 
	C318.757172,405.406494 320.397003,405.426361 322.509033,406.027161 
	C323.824005,406.513184 325.125305,407.362915 326.456665,407.412994 
	C329.691040,407.534668 332.939423,407.284668 336.492615,406.630646 
	C336.488495,406.419098 336.484344,406.207520 336.881073,405.488647 
	C333.354248,400.473389 329.841187,395.448242 326.265076,390.468384 
	C326.058105,390.180176 325.338501,390.260010 324.602539,389.758331 
	C324.455475,389.470062 324.277679,389.202209 323.995667,388.204742 
	C319.677429,382.191803 315.410431,376.140686 310.987701,370.205597 
	C310.296173,369.277588 308.896362,368.877411 307.556488,367.821472 
	C307.400604,367.532227 307.217712,367.261261 307.019470,366.340637 
	C305.501038,364.778961 303.982605,363.217316 302.445007,361.088257 
	C302.343536,360.727661 302.242065,360.367035 302.541779,359.631897 
	C300.769196,358.028137 298.996613,356.424377 297.107880,354.876495 
	C297.107880,354.876495 297.184998,354.773163 297.119293,354.103455 
	C295.497742,352.669403 293.876190,351.235352 292.177612,349.821045 
	C292.177612,349.821045 292.197479,349.744080 292.090424,349.058746 
	C290.711945,347.458069 289.161346,345.973175 287.990448,344.232849 
	C285.481659,340.503967 283.169006,336.643097 280.837219,332.831635 
	C280.837219,332.831635 280.835785,332.770264 281.653961,332.860687 
	C284.651703,331.163361 287.649445,329.466034 290.740387,327.739868 
	C290.740387,327.739868 290.789215,327.655396 291.523682,327.744446 
	C294.122223,325.973541 296.720795,324.202637 299.882355,322.431915 
	C300.253967,322.389252 300.625580,322.346588 301.376740,322.701447 
	C301.805817,322.061340 302.234924,321.421234 302.745575,320.734772 
	C302.745575,320.734772 302.770172,320.644318 303.479004,320.675812 
	C307.031708,317.836426 310.584412,314.997040 314.025116,312.024963 
	C314.025116,312.024963 314.157806,312.136963 314.870789,312.011139 
	C325.310547,305.703766 333.624512,297.278503 340.439117,286.649078 
	C340.545776,286.335144 340.652435,286.021210 340.992279,285.425659 
	C340.992279,285.425659 341.270660,285.188599 341.960297,285.043427 
	C344.085114,282.935028 348.070526,281.945374 346.565887,277.178375 
	C346.565887,277.178375 346.813599,276.837036 347.552521,276.888031 
	C348.829926,275.152985 350.118011,273.425690 351.382904,271.681549 
	C357.716431,262.948761 361.047729,252.961044 363.481476,241.966248 
	C363.513489,241.319107 363.545502,240.671982 364.211700,239.631927 
	C365.075775,236.335770 366.609680,233.054947 366.685638,229.740723 
	C366.981567,216.830276 366.701263,203.907639 366.883636,190.993027 
	C366.946106,186.570419 366.413696,182.514755 363.502411,178.185944 
	C363.468719,176.591187 363.435028,174.996414 363.816376,172.684937 
	C363.162292,170.400589 362.650787,168.062790 361.819244,165.844971 
	C360.690552,162.834366 359.316925,159.915588 358.000000,157.000000 
	C358.000000,157.000000 358.042938,156.952057 357.966156,156.177200 
	C356.842529,152.981476 356.155731,149.532516 354.486389,146.653183 
	C352.330566,142.934799 349.389374,139.671753 346.455353,135.576584 
	C346.417664,134.861984 346.379974,134.147385 346.637573,132.794174 
	C344.005341,129.112625 341.489716,125.338196 338.673584,121.803162 
	C337.766296,120.664268 336.067780,120.155693 334.698822,119.296188 
	C334.698822,119.296188 334.636841,119.262733 334.781952,118.567108 
	C333.096954,117.164627 331.411957,115.762146 329.701202,114.293663 
	C329.701202,114.293663 329.646576,114.248550 329.798309,113.561935 
	C329.119263,113.151924 328.440216,112.741913 327.713745,112.282219 
	C327.713745,112.282219 327.649628,112.257622 327.713593,111.553154 
	C323.190094,107.998734 318.666565,104.444321 314.053558,100.945045 
	C314.053558,100.945045 314.108704,100.855537 314.016083,100.169899 
	C310.199707,97.773621 306.504242,95.145607 302.521912,93.067284 
	C300.103760,91.805298 297.242310,91.392769 293.941437,90.609032 
	C293.305908,90.552917 292.670349,90.496811 291.711945,89.733612 
	C289.709137,88.953735 287.706299,88.173866 285.676483,87.322510 
	C285.676483,87.322510 285.616364,87.275368 285.815643,86.658188 
	C284.882721,86.325882 283.949768,85.993568 282.320557,85.708061 
	C281.625000,85.661102 280.929474,85.614143 279.940613,84.945961 
	C279.091736,84.175285 278.352844,82.937546 277.376648,82.707649 
	C269.382965,80.825119 261.345978,79.126091 253.319351,77.384163 
	C252.354980,77.174873 251.378036,77.012688 250.400055,76.878754 
	C242.136230,75.747086 233.870834,74.627060 224.838135,73.557602 
	C209.356155,73.552467 193.874191,73.547340 177.585114,73.091942 
	C168.744659,74.438751 159.866592,75.580597 151.075150,77.194374 
	C143.434174,78.596954 135.915359,80.663338 128.277115,82.084648 
	C127.207787,82.283630 125.764839,80.474739 124.758827,79.127602 
	C125.042473,78.914764 125.326118,78.701935 126.262001,78.716560 
	C127.890648,76.880524 129.519287,75.044487 131.151932,73.135567 
	C131.151932,73.135567 131.224884,73.138115 131.862335,73.098213 
	C131.083969,72.131653 130.413361,70.455597 129.509064,70.318245 
	C124.980652,69.630440 120.651062,70.346672 116.282906,73.531013 
	C115.320877,73.524895 114.358841,73.518776 112.648811,73.263847 
	C107.539162,75.240059 102.205521,76.785461 97.374313,79.297226 
	C90.746262,82.743187 84.011505,86.314415 78.226593,90.958244 
	C72.488937,95.564133 65.881973,99.924004 63.993946,107.995033 
	C63.993946,107.995033 63.929039,107.941277 63.234909,107.940178 
	C59.858570,112.369377 56.482231,116.798576 53.105896,121.227776 
	C51.958942,118.064201 52.122185,115.162361 51.871780,112.296677 
	C51.782242,111.271957 50.692490,110.334648 50.059269,109.357437 
	C49.395576,110.266098 48.731884,111.174759 47.720898,112.427521 
	C47.449924,112.610405 47.164867,112.767784 46.144394,112.914261 
	C45.181858,115.010475 44.219322,117.106697 43.159058,119.168953 
	C43.159058,119.168953 43.209404,119.259338 42.494270,119.178467 
	C41.074711,122.517517 39.655155,125.856567 38.122978,129.113724 
	C38.122978,129.113724 38.189995,129.235779 37.459843,129.136063 
	C35.499737,134.562729 33.539627,139.989395 31.605186,146.231842 
	C31.446199,147.853394 31.287214,149.474945 30.344782,151.105728 
	C29.650133,152.626633 28.566164,154.089905 28.330952,155.678818 
	C27.493111,161.338623 26.378546,167.047440 26.441841,172.725754 
	C26.507406,178.607864 27.702845,184.496246 28.700136,190.331284 
	C28.874643,191.352280 30.510500,192.123489 31.543324,193.538971 
	C31.545460,193.894562 31.547598,194.250137 31.175236,195.309952 
	C35.309288,199.956207 39.443344,204.602463 43.704983,210.033554 
	C43.703896,211.359314 43.702805,212.685059 43.183163,214.653076 
	C43.936371,224.670120 44.590511,234.696823 45.566273,244.692139 
	C45.690361,245.963257 47.495975,247.070236 48.624153,248.864487 
	C48.637035,250.098373 48.649914,251.332245 48.340805,253.217346 
	C48.990284,253.670151 49.639763,254.122940 50.369320,254.651443 
	C50.369320,254.651443 50.443321,254.733093 50.191769,255.576950 
	C49.833946,258.941315 49.946198,262.125092 53.503616,264.525879 
	C53.541061,264.868927 53.578510,265.212006 53.293407,266.261169 
	C55.622463,269.718414 57.951519,273.175629 60.307747,276.697784 
	C60.307747,276.697784 60.369694,276.731201 60.217987,277.422211 
	C60.887959,277.850250 61.557934,278.278290 62.237984,278.776794 
	C62.237984,278.776794 62.304428,278.751221 62.261009,279.451569 
	C63.257370,280.197052 64.253731,280.942505 65.257904,281.744507 
	C65.257904,281.744507 65.310539,281.766449 65.176117,282.457764 
	C65.866966,282.861664 66.557816,283.265564 67.285080,283.720032 
	C67.285080,283.720032 67.346413,283.731262 67.287491,284.431274 
	C68.284111,285.161835 69.280739,285.892365 70.312553,286.694183 
	C70.312553,286.694183 70.366005,286.752991 70.204697,287.443115 
	C73.758194,289.994690 77.311691,292.546265 80.941879,295.058594 
	C80.941879,295.058594 80.902863,295.135406 80.998375,295.827179 
	C84.471436,297.381134 87.944496,298.935059 92.067680,300.470001 
	C92.709908,300.540253 93.352142,300.610504 94.163994,301.437103 
	C97.322380,304.766998 100.744141,304.822784 102.413086,301.033447 
	C102.418320,300.494171 102.423546,299.954895 102.709862,298.652344 
	C102.117119,297.170410 101.146179,295.726318 100.993523,294.200348 
	C100.059837,284.867340 99.328758,275.514160 98.469261,266.173309 
	C98.400757,265.428802 97.871956,264.726654 97.493950,263.115265 
	C97.529793,252.746918 97.565636,242.378586 98.202896,231.448380 
	C99.617668,221.483856 101.032440,211.519348 102.432457,200.921219 
	C102.475037,200.289215 102.517616,199.657227 103.172447,198.642075 
	C106.311562,193.383545 109.519684,188.163742 112.515808,182.824966 
	C112.968399,182.018509 112.433266,180.657715 112.705414,179.032883 
	C113.419029,178.291061 114.132645,177.549240 115.532387,176.812317 
	C120.284447,171.819366 125.036514,166.826431 130.301422,161.537201 
	C130.823410,160.967148 131.345413,160.397079 132.632401,159.821884 
	C136.690369,157.162186 140.748337,154.502487 145.478104,151.671921 
	C146.366959,151.499588 147.255798,151.327255 148.901688,151.017502 
	C152.642120,149.807739 156.436264,148.737030 160.097610,147.322571 
	C161.651001,146.722443 162.925827,145.401230 165.062698,144.394455 
	C166.042740,144.355927 167.022797,144.317398 168.594940,144.732697 
	C171.038666,144.048355 173.518753,142.668518 175.920151,142.794037 
	C190.099731,143.535187 204.486038,139.977097 218.487732,144.739838 
	C219.289169,145.012436 220.369293,144.465714 222.151917,144.361160 
	C223.524887,144.508438 224.897873,144.655716 226.266861,145.532761 
	C227.263809,146.174438 228.181076,147.068039 229.271851,147.413086 
	C233.451691,148.735367 237.687256,149.881454 241.998779,151.001221 
	C241.998779,151.001221 241.907043,151.098373 242.024612,151.773102 
	C245.974319,153.883484 249.924026,155.993866 253.995255,158.031174 
	C253.995255,158.031174 253.888275,158.124725 253.869843,158.791992 
	C254.884232,159.554596 255.898605,160.317200 257.270416,161.315109 
	C257.270416,161.315109 257.672943,161.460266 257.871552,162.089935 
	C260.513702,165.022705 263.110687,167.998245 265.824463,170.863174 
	C266.679108,171.765427 267.846954,172.371033 268.986572,173.013840 
	C268.986572,173.013840 268.887787,173.128799 269.013916,173.835190 
	C271.156372,176.541382 273.298828,179.247589 275.565460,182.530823 
	C275.592285,182.923218 275.619141,183.315598 275.253540,184.394913 
	C275.992004,186.431885 276.569183,188.548752 277.525055,190.478027 
	C278.172363,191.784561 279.352020,192.827347 280.389313,194.806488 
	C280.450226,196.446198 280.511139,198.085907 280.147919,200.458786 
	C283.112488,208.346954 282.925446,216.292511 280.513092,225.062714 
	C280.480957,226.377884 280.448792,227.693054 279.851501,229.464142 
	C278.443481,233.314896 277.035492,237.165649 275.557434,241.563446 
	C275.555420,241.931076 275.553436,242.298691 274.942627,242.964584 
	C273.615265,245.306000 272.287903,247.647415 270.646973,250.463745 
	C270.100983,250.979385 269.554993,251.495041 268.325470,252.047760 
	C267.362610,254.118500 266.399719,256.189209 265.323944,258.336365 
	C265.323944,258.336365 265.266876,258.460205 264.596680,258.378662 
	C260.970886,261.819672 257.379974,265.298523 253.703964,268.685028 
	C251.973251,270.279419 250.079041,271.696350 247.834549,273.453705 
	C247.537216,273.604156 247.259171,273.784393 246.262665,274.038971 
	C244.544678,274.943115 242.707397,275.676605 241.128769,276.780090 
	C233.101791,282.391174 224.284882,285.935547 214.637024,287.633667 
	C213.179886,287.890137 211.971664,289.560822 209.843033,290.577637 
	C208.227966,290.632202 206.612900,290.686798 204.412537,290.279968 
	C198.934280,290.987305 193.473648,291.956451 187.972717,292.326843 
	C182.682495,292.683044 177.344116,292.582397 172.039215,292.372070 
	C168.425110,292.228821 166.952698,293.896515 167.679001,297.108459 
	C168.099426,298.967682 169.603439,300.581909 170.603119,302.976074 
	C170.626129,303.645233 170.649155,304.314423 170.220047,305.584595 
	C171.123840,309.958038 171.919022,314.359131 173.019531,318.682495 
	C173.250336,319.589294 174.604858,320.210022 175.505630,321.751648 
	C175.574371,323.063446 175.643112,324.375214 175.387604,326.277435 
	C176.015366,326.701477 176.643143,327.125519 177.354889,327.666962 
	C177.354889,327.666962 177.486404,327.726471 177.377167,328.538361 
	C178.397354,331.480835 179.417542,334.423279 180.484863,337.956146 
	C180.638931,338.312683 180.792984,338.669189 181.041290,339.820709 
	C183.867691,347.170685 186.411453,354.647034 189.620468,361.825989 
	C191.738586,366.564392 194.813156,370.875244 197.471848,376.057373 
	C197.641647,376.703949 197.811432,377.350494 198.048691,378.758118 
	C200.096054,382.073456 202.143417,385.388763 204.225372,388.782227 
	C204.225372,388.782227 204.304459,388.814636 204.173630,389.625519 
	C205.872238,392.607452 207.570831,395.589417 209.301758,398.689972 
	C209.301758,398.689972 209.395782,398.769165 209.205185,399.503174 
	C209.665283,400.773315 210.125397,402.043427 210.585510,403.313568 
	C211.693832,402.487183 213.392288,401.876526 213.789459,400.790131 
	C214.656418,398.418854 214.808701,395.794006 215.357193,393.295654 
	C215.681915,391.816559 216.205444,390.381104 216.639572,388.926025 
	C217.063766,389.081726 217.487976,389.237396 217.912170,389.393097 
	C218.429657,391.048798 218.947159,392.704468 219.439011,395.123383 
	C219.494904,397.981598 219.550781,400.839844 219.278732,404.431488 
	C221.577515,410.877197 223.656677,417.414124 226.279022,423.725372 
	C227.386948,426.391754 229.638458,428.583008 231.483414,431.556946 
	C231.538528,431.938110 231.593643,432.319275 231.305817,433.312408 
	C231.921707,433.805542 232.537598,434.298645 233.152634,434.862885 
	C233.152634,434.862885 233.217743,434.834259 233.219635,435.593292 
	C238.226959,441.936829 243.234283,448.280365 248.280594,454.722626 
	C248.280594,454.722626 248.373520,454.773865 248.278366,455.437500 
	C248.916489,455.860687 249.554596,456.283875 250.236786,456.775238 
	C250.236786,456.775238 250.317566,456.783264 250.329361,457.452759 
	C251.297760,458.185699 252.266159,458.918671 253.258347,459.741302 
	C253.258347,459.741302 253.337585,459.789551 253.234512,460.455566 
	C253.886246,460.877655 254.537979,461.299774 255.222778,461.786682 
	C255.222778,461.786682 255.295197,461.794037 255.291931,462.502472 
	C257.896423,465.616913 260.500916,468.731384 263.358490,472.281097 
	C263.563171,472.545197 263.767853,472.809296 264.022827,473.735687 
	C265.644104,475.193329 267.265381,476.650970 269.250488,478.437744 
	C269.528564,478.610199 269.811981,478.773438 270.083038,479.608612 
	C271.358246,480.771545 272.633423,481.934479 274.379211,483.425110 
	C274.894043,483.979279 275.408875,484.533447 275.909393,485.750641 
	C276.908173,486.529816 277.906952,487.308990 278.991852,487.999268 
	C278.991852,487.999268 278.915253,488.095367 278.985504,488.711151 
z"/>
<path fill="#060518" opacity="1.000000" stroke="none" 
	d="
M287.074799,495.936401 
	C286.787140,495.789856 286.506775,495.630493 286.073853,494.946045 
	C284.248596,492.986572 282.583191,491.539337 280.917755,490.092133 
	C280.917755,490.092133 280.997894,490.007904 280.993408,489.698853 
	C280.297699,488.958344 279.606476,488.526855 278.915253,488.095398 
	C278.915253,488.095367 278.991852,487.999268 278.967041,487.698547 
	C277.936035,486.627777 276.929871,485.857727 275.923706,485.087646 
	C275.408875,484.533447 274.894043,483.979279 274.159241,482.918701 
	C272.659760,481.250671 271.380219,480.089050 270.100708,478.927429 
	C269.811981,478.773438 269.528564,478.610199 269.095459,477.923676 
	C267.284454,475.964203 265.628479,474.518799 263.972504,473.073395 
	C263.767853,472.809296 263.563171,472.545197 263.232727,471.716675 
	C260.503082,468.032806 257.899139,464.913422 255.295197,461.794037 
	C255.295197,461.794037 255.222778,461.786682 255.185303,461.459534 
	C254.544418,460.684784 253.941010,460.237152 253.337585,459.789551 
	C253.337585,459.789551 253.258347,459.741302 253.234390,459.376282 
	C252.246140,458.268616 251.281860,457.525940 250.317566,456.783264 
	C250.317566,456.783264 250.236786,456.775238 250.187317,456.449158 
	C249.549744,455.673370 248.961624,455.223633 248.373505,454.773865 
	C248.373520,454.773865 248.280594,454.722626 248.209381,454.324097 
	C243.164703,447.561768 238.191223,441.197998 233.217743,434.834259 
	C233.217743,434.834259 233.152634,434.862885 233.153778,434.551056 
	C232.652863,433.726288 232.150818,433.213348 231.648773,432.700439 
	C231.593643,432.319275 231.538528,431.938110 231.635315,431.046692 
	C228.754944,423.124359 225.783844,415.686249 222.643875,408.320068 
	C221.932434,406.651123 220.634598,405.232117 219.606674,403.698059 
	C219.550781,400.839844 219.494904,397.981598 219.668640,394.341949 
	C219.944901,392.731140 220.298767,391.747253 219.975250,391.104065 
	C219.267075,389.696106 218.215225,388.460999 217.303757,387.155304 
	C216.204651,388.493225 214.641525,389.674103 214.122314,391.208282 
	C213.453461,393.184570 213.855270,395.499512 213.365067,397.566406 
	C212.828537,399.828613 211.301453,400.279572 209.395782,398.769165 
	C209.395782,398.769165 209.301758,398.689972 209.228363,398.270874 
	C207.538132,394.839386 205.921295,391.827026 204.304459,388.814636 
	C204.304459,388.814636 204.225372,388.782227 204.159622,388.375977 
	C202.056320,384.645508 200.018768,381.321289 197.981232,377.997070 
	C197.811432,377.350494 197.641647,376.703949 197.622086,375.368805 
	C196.488495,372.303955 194.975998,370.020905 193.962173,367.534546 
	C190.414825,358.834839 187.086563,350.045776 183.532776,341.348816 
	C183.138306,340.383423 181.831009,339.791077 180.947052,339.025726 
	C180.792984,338.669189 180.638931,338.312683 180.677673,337.281738 
	C179.742462,333.647034 178.614441,330.686737 177.486404,327.726471 
	C177.486404,327.726471 177.354889,327.666962 177.335052,327.338013 
	C176.780777,326.568359 176.246323,326.127686 175.711853,325.687012 
	C175.643112,324.375214 175.574371,323.063446 175.683777,321.092987 
	C174.132004,315.284088 172.402084,310.133820 170.672165,304.983582 
	C170.649155,304.314423 170.626129,303.645233 170.786652,302.269653 
	C170.171417,299.273712 169.372650,296.984161 168.282471,293.859344 
	C173.990646,293.859344 178.446548,293.968689 182.895126,293.834808 
	C190.367386,293.609955 198.111557,295.190704 204.997833,290.741394 
	C206.612900,290.686798 208.227966,290.632202 210.629913,290.705505 
	C214.814575,290.028381 218.333069,289.549255 221.582916,288.345123 
	C226.988419,286.342255 232.413834,284.227509 237.461288,281.480774 
	C240.962219,279.575592 243.842728,276.530304 247.000427,273.994385 
	C247.259171,273.784393 247.537216,273.604156 248.412903,273.276978 
	C256.022858,270.006042 260.890381,264.506073 265.266876,258.460205 
	C265.266876,258.460205 265.323944,258.336365 265.723877,258.228210 
	C267.085541,256.083618 268.047272,254.047150 269.009003,252.010696 
	C269.554993,251.495041 270.100983,250.979385 271.171814,250.214142 
	C272.981598,247.531784 274.266541,245.099060 275.551453,242.666321 
	C275.553436,242.298691 275.555420,241.931076 275.936646,241.129242 
	C277.682800,236.799423 279.049713,232.903824 280.416656,229.008224 
	C280.448792,227.693054 280.480957,226.377884 280.857025,224.518097 
	C282.030212,221.970245 283.685272,219.903107 283.536102,217.975555 
	C283.061249,211.838318 286.061462,205.044449 280.572052,199.725616 
	C280.511139,198.085907 280.450226,196.446198 280.558289,194.162186 
	C279.033508,190.247925 277.339722,186.977951 275.645996,183.707993 
	C275.619141,183.315598 275.592285,182.923218 275.682556,181.993378 
	C273.495697,178.680237 271.191742,175.904510 268.887787,173.128799 
	C268.887787,173.128799 268.986572,173.013840 268.957031,172.698090 
	C268.085022,170.802383 267.589539,168.824417 266.328278,167.724808 
	C263.654755,165.393951 260.582001,163.520981 257.672943,161.460266 
	C257.672943,161.460266 257.270416,161.315109 257.101868,160.852417 
	C255.918304,159.634720 254.903290,158.879715 253.888275,158.124725 
	C253.888275,158.124725 253.995255,158.031174 253.977509,157.708527 
	C249.729233,155.698242 247.405731,150.354996 241.907043,151.098373 
	C241.907043,151.098373 241.998779,151.001221 241.970306,150.670197 
	C240.941574,149.696411 240.021103,148.799286 238.926895,148.455948 
	C234.738480,147.141769 230.494247,146.005600 226.270844,144.802979 
	C224.897873,144.655716 223.524887,144.508438 221.525879,144.066635 
	C216.214096,140.506882 210.848419,141.160263 205.609421,141.147400 
	C197.458740,141.127411 189.287064,140.809982 181.165512,141.300766 
	C176.734161,141.568542 172.387619,143.240280 168.002838,144.278870 
	C167.022797,144.317398 166.042740,144.355927 164.316071,144.223572 
	C160.786621,144.773117 157.837372,145.132172 155.267731,146.315536 
	C152.695923,147.499893 150.503418,149.507935 148.144653,151.154922 
	C147.255798,151.327255 146.366959,151.499588 144.762695,151.738861 
	C139.987335,154.479538 135.927368,157.153275 131.867401,159.827026 
	C131.345413,160.397079 130.823410,160.967148 129.697998,161.697723 
	C124.345131,166.841293 119.595688,171.824356 114.846260,176.807419 
	C114.132645,177.549240 113.419029,178.291061 112.264626,179.496811 
	C109.677170,183.469650 107.302551,186.863861 105.460190,190.525864 
	C104.127487,193.174835 103.501404,196.179291 102.560188,199.025223 
	C102.517616,199.657227 102.475037,200.289215 102.095825,201.347000 
	C100.973045,203.441299 99.877357,205.039978 99.481094,206.796463 
	C99.012634,208.872955 99.809410,211.428543 98.902603,213.177567 
	C95.695557,219.363266 97.168007,225.684662 97.601471,232.010239 
	C97.565636,242.378586 97.529793,252.746918 97.291641,263.897888 
	C97.887100,275.067932 98.593750,285.464203 99.599709,295.831451 
	C99.723351,297.105682 101.446739,298.224670 102.428787,299.415619 
	C102.423546,299.954895 102.418320,300.494171 102.071281,301.442261 
	C99.151108,301.460968 96.572746,301.070831 93.994377,300.680725 
	C93.352142,300.610504 92.709908,300.540253 91.653549,300.143799 
	C87.793907,298.256866 84.348389,296.696136 80.902863,295.135406 
	C80.902863,295.135406 80.941879,295.058594 80.922729,294.726868 
	C77.391052,291.847717 73.878532,289.300354 70.366013,286.752991 
	C70.366005,286.752991 70.312553,286.694183 70.280273,286.340424 
	C69.280792,285.234863 68.313606,284.483063 67.346420,283.731262 
	C67.346413,283.731262 67.285080,283.720032 67.220978,283.401550 
	C66.541428,282.644196 65.925980,282.205322 65.310539,281.766449 
	C65.310539,281.766449 65.257904,281.744507 65.232758,281.393677 
	C64.239883,280.278992 63.272156,279.515106 62.304432,278.751221 
	C62.304428,278.751221 62.237984,278.776794 62.192993,278.446838 
	C61.555229,277.654999 60.962463,277.193115 60.369698,276.731201 
	C60.369694,276.731201 60.307747,276.697784 60.238533,276.299469 
	C57.984863,272.452454 55.800407,269.003754 53.615952,265.555054 
	C53.578510,265.212006 53.541061,264.868927 53.691635,264.011230 
	C52.734207,260.575439 51.588768,257.654266 50.443321,254.733093 
	C50.443321,254.733093 50.369320,254.651443 50.350380,254.330688 
	C49.775227,253.528671 49.219009,253.047394 48.662796,252.566132 
	C48.649914,251.332245 48.637035,250.098373 48.736610,248.181763 
	C48.173378,245.678787 47.098938,243.903015 46.890099,242.030701 
	C45.916256,233.299988 45.191277,224.541641 44.340317,215.796783 
	C44.280937,215.186523 43.921577,214.605453 43.701714,214.010818 
	C43.702805,212.685059 43.703896,211.359314 43.767872,209.315308 
	C39.737087,203.933273 35.643410,199.269501 31.549736,194.605728 
	C31.547598,194.250137 31.545460,193.894562 31.724669,192.998871 
	C31.163813,189.268478 29.906532,186.098236 29.781429,182.883911 
	C29.475182,175.015518 29.572269,167.123871 29.763334,159.247803 
	C29.829479,156.521271 30.651478,153.813065 31.128229,151.096497 
	C31.287214,149.474945 31.446199,147.853394 31.857843,145.613220 
	C34.136997,139.741653 36.163494,134.488724 38.189995,129.235779 
	C38.189995,129.235779 38.122978,129.113724 38.520714,129.080719 
	C40.348763,125.784935 41.779083,122.522133 43.209404,119.259338 
	C43.209404,119.259338 43.159058,119.168953 43.537987,119.110245 
	C44.899857,117.000908 45.882793,114.950279 46.865730,112.899651 
	C47.164867,112.767784 47.449924,112.610405 48.273773,112.147728 
	C49.418442,112.900696 50.396641,113.886223 50.529766,114.975060 
	C50.933563,118.277641 51.010319,121.620224 51.214466,124.947220 
	C51.853230,125.109039 52.491993,125.270851 53.130756,125.432671 
	C56.730183,119.602203 60.329613,113.771744 63.929039,107.941277 
	C63.929039,107.941277 63.993946,107.995033 64.321251,107.984787 
	C66.210014,105.729927 67.498131,103.219543 69.378799,101.285301 
	C79.107559,91.279419 90.434219,83.662918 103.543587,78.678963 
	C106.985260,77.370514 110.120728,75.256645 113.396812,73.512650 
	C114.358841,73.518776 115.320877,73.524895 116.939560,73.707916 
	C119.265587,73.432861 120.926857,72.644417 122.606148,72.603966 
	C125.473106,72.534897 128.351364,72.935051 131.224884,73.138115 
	C131.224884,73.138115 131.151932,73.135567 130.810577,73.147598 
	C128.849396,74.936119 127.229584,76.712608 125.609772,78.489105 
	C125.326118,78.701935 125.042473,78.914764 124.298576,79.452316 
	C122.197266,81.308609 120.556198,82.840179 117.773514,85.437202 
	C120.696182,85.621880 122.288223,86.138931 123.596146,85.735306 
	C130.410522,83.632416 137.022156,80.682625 143.955338,79.206230 
	C151.382599,77.624634 159.114883,77.532394 166.662811,76.437119 
	C170.629120,75.861565 174.485947,74.531548 178.392212,73.542213 
	C193.874191,73.547340 209.356155,73.552467 225.417847,73.814049 
	C229.277802,74.879951 232.517822,75.980858 235.846375,76.440155 
	C243.539413,77.501686 251.378845,77.740959 258.964020,79.276474 
	C266.182648,80.737785 273.153900,83.421135 280.233917,85.567192 
	C280.929474,85.614143 281.625000,85.661102 282.828522,85.960434 
	C284.096436,86.566986 284.856415,86.921181 285.616364,87.275375 
	C285.616364,87.275368 285.676483,87.322510 285.752625,87.694229 
	C287.897461,88.857536 289.966125,89.649117 292.034821,90.440689 
	C292.670349,90.496811 293.305908,90.552917 294.454956,90.870651 
	C298.505219,93.413277 301.914551,95.935547 305.621948,97.893349 
	C308.241730,99.276802 311.265350,99.895454 314.108704,100.855537 
	C314.108704,100.855537 314.053558,100.945045 314.080627,101.263474 
	C318.621643,105.140465 323.135651,108.699043 327.649628,112.257622 
	C327.649628,112.257622 327.713745,112.282219 327.772522,112.599075 
	C328.436401,113.360130 329.041473,113.804344 329.646576,114.248550 
	C329.646576,114.248550 329.701202,114.293663 329.744232,114.654282 
	C331.403778,116.430847 333.020294,117.846794 334.636841,119.262741 
	C334.636841,119.262733 334.698822,119.296188 334.780701,119.674812 
	C338.689148,124.513222 342.515717,128.973007 346.342316,133.432785 
	C346.379974,134.147385 346.417664,134.861984 346.663635,136.266113 
	C349.133514,141.346237 351.319336,145.778214 353.686768,150.110962 
	C354.980133,152.478027 356.580841,154.677170 358.042938,156.952057 
	C358.042938,156.952057 358.000000,157.000000 357.977173,157.412521 
	C358.394836,163.498138 359.799591,168.834030 363.401337,173.401657 
	C363.435028,174.996414 363.468719,176.591187 363.319397,178.877808 
	C363.878174,184.199631 364.933105,188.806351 365.278839,193.465698 
	C365.670410,198.742111 365.460571,204.065811 365.449524,209.368805 
	C365.435364,216.163254 365.536285,222.965454 365.234741,229.748642 
	C365.081696,233.191788 364.154663,236.600540 363.577515,240.024841 
	C363.545502,240.671982 363.513489,241.319107 363.197113,242.458557 
	C362.079193,244.638367 361.067993,246.263626 360.450439,248.026779 
	C359.293396,251.330292 358.797302,254.930588 357.250244,258.018616 
	C354.040192,264.426086 350.322571,270.579315 346.813599,276.837036 
	C346.813599,276.837036 346.565887,277.178375 346.233459,277.564758 
	C344.357574,280.363647 342.814117,282.776123 341.270660,285.188599 
	C341.270660,285.188599 340.992279,285.425659 340.643188,285.479919 
	C340.294067,285.534180 339.842682,285.738983 339.514465,285.840454 
	C332.341461,295.390289 324.787354,304.121643 314.731293,310.366791 
	C314.328888,310.616730 314.339600,311.531799 314.157806,312.136963 
	C314.157806,312.136963 314.025116,312.024963 313.728333,312.059692 
	C309.877777,314.944366 306.323975,317.794342 302.770172,320.644348 
	C302.770172,320.644318 302.745575,320.734772 302.396545,320.790222 
	C301.697418,321.331787 301.347321,321.817871 300.997192,322.303925 
	C300.625580,322.346588 300.253967,322.389252 299.254761,322.278137 
	C296.014526,323.968048 293.401886,325.811737 290.789215,327.655396 
	C290.789215,327.655396 290.740387,327.739868 290.327301,327.791321 
	C286.888092,329.485260 283.861938,331.127777 280.835785,332.770264 
	C280.835785,332.770264 280.837219,332.831635 280.468750,332.873199 
	C277.789520,334.815002 277.466858,336.252808 280.433685,338.147003 
	C282.333130,339.359711 283.380188,341.830902 285.059875,343.483246 
	C287.312317,345.699036 289.806854,347.668732 292.197479,349.744080 
	C292.197479,349.744080 292.177612,349.821045 292.186523,350.157440 
	C293.858643,351.920288 295.521820,353.346741 297.184998,354.773163 
	C297.184998,354.773163 297.107880,354.876495 297.123718,355.195557 
	C298.806549,357.011932 300.473572,358.509186 302.140594,360.006439 
	C302.242065,360.367035 302.343536,360.727661 302.263794,361.694702 
	C303.724304,363.870270 305.366058,365.439392 307.007782,367.008514 
	C307.217712,367.261261 307.400604,367.532227 307.730103,368.373413 
	C311.974426,373.975189 316.044189,379.025848 320.116425,384.074524 
	C321.430695,385.703949 322.751373,387.328156 324.069122,388.954773 
	C324.277679,389.202209 324.455475,389.470062 324.763245,390.315674 
	C328.776031,395.914001 332.628113,400.954956 336.480194,405.995911 
	C336.484344,406.207520 336.488495,406.419098 335.886200,406.862366 
	C332.247894,406.440857 329.234161,405.673218 326.175690,405.187378 
	C324.843414,404.975739 323.419281,405.342255 322.036865,405.446228 
	C320.397003,405.426361 318.757172,405.406494 316.516815,405.086517 
	C310.600708,402.522614 305.297546,400.228485 299.952850,398.035583 
	C299.324280,397.777679 298.467346,398.076324 297.716278,398.117004 
	C297.883698,399.285919 297.628693,400.860199 298.292938,401.552277 
	C300.917389,404.286743 303.556122,407.161713 306.691437,409.220276 
	C313.763672,413.863800 321.134369,418.052795 328.383636,422.426758 
	C329.066681,422.489716 329.749756,422.552704 330.710144,423.159546 
	C331.700928,424.324493 332.313843,425.212555 333.143524,425.524963 
	C340.972473,428.473267 348.838379,431.323456 356.693634,434.201904 
	C356.693634,434.201935 356.769897,434.222382 356.810852,434.555817 
	C357.481110,435.318359 358.110413,435.747467 358.739716,436.176575 
	C358.739716,436.176575 358.799011,436.203583 358.799530,436.599548 
	C362.547241,441.980957 366.294464,446.966339 370.041656,451.951752 
	C370.041656,451.951752 370.001221,452.000000 369.993866,452.317352 
	C371.241180,453.815460 372.495850,454.996246 373.750519,456.177002 
	C373.750519,456.177002 373.810638,456.185486 373.867554,456.559998 
	C375.473602,459.027557 377.022797,461.120575 378.571991,463.213593 
	C378.571991,463.213593 378.697266,463.297150 378.764465,463.698364 
	C382.460815,468.599396 386.058563,473.125336 389.753876,477.570190 
	C390.291321,478.216614 391.295135,478.475342 392.083130,478.913483 
	C392.083130,478.913483 392.000000,479.000000 392.014160,479.301636 
	C393.313965,480.766846 394.599640,481.930450 395.885284,483.094055 
	C396.462921,483.599457 397.040558,484.104858 397.750153,485.209564 
	C399.268250,486.861816 400.654388,487.914764 402.040527,488.967712 
	C402.266296,489.201843 402.455048,489.462799 402.741699,490.291870 
	C404.491943,492.285431 406.107269,493.737640 407.722626,495.189819 
	C407.722626,495.189819 407.788940,495.209137 407.801117,495.594574 
	C409.658142,497.503357 411.502960,499.026703 413.347778,500.550079 
	C413.347778,500.550079 413.710632,500.712006 413.832703,501.181458 
	C415.210297,502.830902 416.465790,504.010925 417.721283,505.190918 
	C417.721283,505.190918 417.791077,505.204285 417.790710,505.551270 
	C418.440338,506.324860 419.090363,506.751495 419.740387,507.178131 
	C419.740387,507.178131 419.805725,507.191498 419.821838,507.557190 
	C421.489960,509.329529 423.141937,510.736145 424.793945,512.142761 
	C424.793945,512.142761 424.854126,512.144714 424.868835,512.510986 
	C426.258301,513.913269 427.633057,514.949219 429.007812,515.985168 
	C429.534424,516.525879 430.061035,517.066528 430.809692,518.123535 
	C432.718964,520.057129 434.406189,521.474426 436.093414,522.891724 
	C436.093414,522.891724 436.011963,522.993896 436.029785,523.302246 
	C442.973236,528.792542 449.898804,533.974426 456.824371,539.156311 
	C457.103394,539.315125 457.381592,539.475342 457.839600,540.148682 
	C463.255188,544.169250 468.490051,547.678101 473.724915,551.186951 
	C473.724915,551.186951 473.791656,551.206177 473.876038,551.573181 
	C477.869232,554.027161 481.778107,556.114197 485.686951,558.201172 
	C485.686951,558.201172 485.762482,558.239746 485.798950,558.626709 
	C487.517822,559.705750 489.200165,560.397827 490.882538,561.089905 
	C490.882538,561.089905 491.296082,561.322632 491.655884,561.717285 
	C495.122406,563.580322 498.229156,565.048706 501.335876,566.517090 
	C501.750824,566.895386 502.165741,567.273682 502.777679,568.246094 
	C506.239044,570.285278 509.503418,571.730408 512.767761,573.175537 
	C512.915833,573.265320 513.063904,573.355042 513.622559,573.833618 
	C516.935791,575.546387 519.838379,576.870361 522.741028,578.194336 
	C523.468262,578.309021 524.195435,578.423645 525.247314,578.952026 
	C525.005005,579.618774 524.438660,580.090881 523.870911,580.092651 
	C512.068909,580.130127 500.266510,580.137146 488.464630,580.071472 
	C487.349182,580.065247 486.249359,579.365112 485.120392,579.280945 
	C481.095459,578.980591 477.061035,578.807068 473.030212,578.585571 
	C472.571259,578.596619 472.112335,578.607605 471.138000,578.372559 
	C469.756866,578.277771 468.891083,578.428955 468.025330,578.580139 
	C467.567078,578.590576 467.108826,578.601013 466.069519,578.360779 
	C464.879578,578.248047 464.270691,578.385986 463.661804,578.523926 
	C462.688721,578.525635 461.715607,578.527344 460.214539,578.151123 
	C457.474976,576.972351 455.318329,575.737000 453.041870,575.449219 
	C445.027252,574.435669 436.968506,573.774780 428.935455,572.898132 
	C428.018585,572.798035 427.158264,572.180115 426.271729,571.802368 
	C425.539307,571.659973 424.806885,571.517578 423.470673,571.075623 
	C416.588135,569.375977 410.309357,567.975891 404.030609,566.575806 
	C402.719574,566.520081 401.408508,566.464294 399.620667,566.109009 
	C398.534546,565.476624 397.925171,565.143860 397.315796,564.811157 
	C397.315796,564.811157 397.234161,564.759216 397.146545,564.346558 
	C394.243988,563.143982 391.429077,562.354004 388.614166,561.564087 
	C387.391602,561.523010 386.169067,561.481995 384.586853,561.043457 
	C376.702118,556.909363 369.177002,553.172729 361.651917,549.436096 
	C361.282654,549.408936 360.913391,549.381775 360.149811,548.958191 
	C357.551300,547.335083 355.347107,546.108337 353.142914,544.881592 
	C352.868896,544.709961 352.590332,544.546082 352.120758,543.888672 
	C349.121094,541.499695 346.307922,539.611877 343.494720,537.724121 
	C343.494720,537.724121 343.362579,537.646301 343.273682,537.245605 
	C340.380310,534.334351 337.575897,531.823792 334.771484,529.313293 
	C334.771484,529.313293 334.742615,529.259521 334.753540,528.897461 
	C333.009857,525.834595 331.427856,522.996521 329.433685,520.485901 
	C328.296692,519.054443 326.487183,518.157104 324.980499,517.019226 
	C324.980499,517.019226 324.705109,516.708557 324.819855,516.146606 
	C323.249084,512.759216 321.563538,509.933777 319.877991,507.108337 
	C319.741058,506.573090 319.604095,506.037811 319.709839,504.997925 
	C318.734619,502.730164 317.516693,500.967010 316.298767,499.203888 
	C315.665131,499.383270 315.031525,499.562683 314.397888,499.742065 
	C315.119507,505.911987 315.841125,512.081909 316.640533,518.916992 
	C313.541504,517.569458 311.464386,516.666260 309.387238,515.763062 
	C309.387238,515.763062 309.288788,515.716309 309.224365,515.338379 
	C307.548950,513.570007 305.937958,512.179565 304.326965,510.789124 
	C304.326965,510.789124 304.243988,510.764526 304.165466,510.394348 
	C301.779602,508.641022 299.472229,507.257843 297.164856,505.874695 
	C297.164856,505.874695 297.070282,505.931519 297.091553,505.543823 
	C295.719940,504.123871 294.327087,503.091675 292.934204,502.059448 
	C292.406067,501.522644 291.877930,500.985870 291.154724,499.925110 
	C289.664734,498.246246 288.369751,497.091339 287.074799,495.936401 
M345.377350,488.527985 
	C346.318726,489.334259 347.260101,490.140564 348.283264,491.568542 
	C349.216766,492.302368 350.150238,493.036224 351.260986,494.389923 
	C352.201691,495.255035 353.142395,496.120148 354.093781,497.586029 
	C354.755585,497.992188 355.417389,498.398315 356.289337,499.511841 
	C357.647156,499.962006 359.004944,500.412170 360.380005,501.447205 
	C360.940765,501.870178 361.501526,502.293152 362.465088,503.178802 
	C362.792084,503.422974 363.119080,503.667145 363.408600,504.526520 
	C364.226685,505.114166 365.044800,505.701782 365.906647,506.720917 
	C366.020538,507.020416 366.235504,507.196777 366.787903,507.843994 
	C367.465454,508.339172 368.143005,508.834320 369.155945,509.888397 
	C369.779541,509.963196 370.403168,510.038025 371.321472,510.466217 
	C371.321472,510.466217 371.773590,510.551392 372.024261,511.147980 
	C376.814789,516.419983 376.814789,516.419983 379.664795,513.436584 
	C377.530609,511.875702 375.418488,510.331024 372.959564,508.247528 
	C372.387909,508.015991 371.816284,507.784454 371.139221,507.270935 
	C371.139221,507.270935 370.882416,507.113861 370.707092,506.655914 
	C370.504089,506.378357 370.234344,506.204163 369.406311,505.819977 
	C368.938568,505.212463 368.470825,504.604980 367.953430,503.393768 
	C367.280060,502.996033 366.606689,502.598297 365.735260,501.548401 
	C364.074249,500.037476 362.413208,498.526581 360.837799,496.505096 
	C360.555023,496.379852 360.272247,496.254578 359.766663,495.800293 
	C359.766663,495.800293 359.369873,495.779205 359.062164,495.181946 
	C357.325378,494.230713 355.588562,493.279480 353.910736,492.149323 
	C353.910736,492.149323 353.724335,492.122070 353.755432,491.440063 
	C352.168335,489.610382 350.645721,487.719696 348.982574,485.962006 
	C343.129211,479.775940 337.227631,473.635559 331.138397,466.920593 
	C330.381256,466.288055 329.624115,465.655518 328.867035,464.435150 
	C328.218628,464.052826 327.570221,463.670471 326.754059,462.659332 
	C325.815552,461.775665 324.877045,460.891998 323.877686,459.371582 
	C322.922394,458.571808 321.967102,457.772034 320.572937,456.463776 
	C310.596497,444.997559 300.620056,433.531372 290.268341,421.655792 
	C289.215363,420.370056 288.152496,419.092285 287.111053,417.797241 
	C281.015350,410.217255 274.924622,402.633270 268.621887,394.362823 
	C264.460419,388.535034 260.298981,382.707214 255.969727,376.196228 
	C254.390884,373.804565 252.812057,371.412903 250.758575,368.302216 
	C246.956100,373.491547 250.659286,375.136627 253.414810,377.903961 
	C258.207642,384.769623 263.000458,391.635315 267.969360,399.175262 
	C272.902191,405.783325 277.765015,412.445831 282.826569,418.953796 
	C283.846466,420.265137 285.619843,420.990479 286.940338,422.602051 
	C289.482147,425.899170 291.921814,429.281494 294.587097,432.475555 
	C300.041229,439.011810 305.616577,445.446869 311.187775,452.550903 
	C311.790161,453.032898 312.392548,453.514893 313.484894,454.454590 
	C313.972351,455.650574 314.459839,456.846558 314.936035,458.679688 
	C315.636810,459.092773 316.337616,459.505829 317.296936,460.478516 
	C318.159241,461.345978 319.021576,462.213409 319.920746,463.711426 
	C320.607971,464.149292 321.295197,464.587158 322.289215,465.630646 
	C325.507751,468.759125 328.726318,471.887573 331.982452,475.640198 
	C332.669952,476.059967 333.357452,476.479736 334.201263,477.509399 
	C335.129852,478.341278 336.058441,479.173126 337.079437,480.645355 
	C338.042053,481.459625 339.004669,482.273895 340.360413,483.573242 
	C341.284698,484.362396 342.208954,485.151520 343.231537,486.550751 
	C343.818085,487.042175 344.404602,487.533600 345.377350,488.527985 
M60.406830,179.512863 
	C60.496628,181.656540 60.217239,183.913864 60.827850,185.897202 
	C61.145786,186.929886 63.173801,188.284637 64.187782,188.107880 
	C68.624596,187.334549 72.925713,177.917969 70.131996,174.509216 
	C68.530777,172.555496 65.225121,171.998688 62.686802,170.812988 
	C61.933022,172.746826 61.127880,174.663101 60.456539,176.625153 
	C60.253315,177.219086 60.420494,177.939758 60.406830,179.512863 
z"/>
<path fill="#9B9D90" opacity="1.000000" stroke="none" 
	d="
M177.988663,73.317078 
	C174.485947,74.531548 170.629120,75.861565 166.662811,76.437119 
	C159.114883,77.532394 151.382599,77.624634 143.955338,79.206230 
	C137.022156,80.682625 130.410522,83.632416 123.596146,85.735306 
	C122.288223,86.138931 120.696182,85.621880 117.773514,85.437202 
	C120.556198,82.840179 122.197266,81.308609 124.166580,79.686157 
	C125.764839,80.474739 127.207787,82.283630 128.277115,82.084648 
	C135.915359,80.663338 143.434174,78.596954 151.075150,77.194374 
	C159.866592,75.580597 168.744659,74.438751 177.988663,73.317078 
z"/>
<path fill="#9B9D90" opacity="1.000000" stroke="none" 
	d="
M363.894592,239.828384 
	C364.154663,236.600540 365.081696,233.191788 365.234741,229.748642 
	C365.536285,222.965454 365.435364,216.163254 365.449524,209.368805 
	C365.460571,204.065811 365.670410,198.742111 365.278839,193.465698 
	C364.933105,188.806351 363.878174,184.199631 363.360474,179.276642 
	C366.413696,182.514755 366.946106,186.570419 366.883636,190.993027 
	C366.701263,203.907639 366.981567,216.830276 366.685638,229.740723 
	C366.609680,233.054947 365.075775,236.335770 363.894592,239.828384 
z"/>
<path fill="#9B9D90" opacity="1.000000" stroke="none" 
	d="
M113.022812,73.388245 
	C110.120728,75.256645 106.985260,77.370514 103.543587,78.678963 
	C90.434219,83.662918 79.107559,91.279419 69.378799,101.285301 
	C67.498131,103.219543 66.210014,105.729927 64.295311,107.951630 
	C65.881973,99.924004 72.488937,95.564133 78.226593,90.958244 
	C84.011505,86.314415 90.746262,82.743187 97.374313,79.297226 
	C102.205521,76.785461 107.539162,75.240059 113.022812,73.388245 
z"/>
<path fill="#767C70" opacity="1.000000" stroke="none" 
	d="
M328.259613,422.110687 
	C321.134369,418.052795 313.763672,413.863800 306.691437,409.220276 
	C303.556122,407.161713 300.917389,404.286743 298.292938,401.552277 
	C297.628693,400.860199 297.883698,399.285919 297.716278,398.117004 
	C298.467346,398.076324 299.324280,397.777679 299.952850,398.035583 
	C305.297546,400.228485 310.600708,402.522614 316.109894,405.057220 
	C314.805756,405.133026 313.294952,405.007202 311.813599,404.725983 
	C309.842010,404.351715 307.893372,403.856415 305.934906,403.413086 
	C305.595764,403.930786 305.256653,404.448517 304.917542,404.966217 
	C306.582153,406.604645 308.052460,408.525421 309.947296,409.829224 
	C315.924500,413.942047 322.060852,417.823578 328.259613,422.110687 
M304.257538,403.411255 
	C303.924133,403.058929 303.590729,402.706604 303.257294,402.354279 
	C303.378784,402.851868 303.500244,403.349487 304.257538,403.411255 
z"/>
<path fill="#767C70" opacity="1.000000" stroke="none" 
	d="
M473.311310,578.855774 
	C477.061035,578.807068 481.095459,578.980591 485.120392,579.280945 
	C486.249359,579.365112 487.349182,580.065247 488.464630,580.071472 
	C500.266510,580.137146 512.068909,580.130127 523.870911,580.092651 
	C524.438660,580.090881 525.005005,579.618774 525.615906,578.996704 
	C526.609680,578.819397 527.559509,579.011108 528.509338,579.202820 
	C528.497681,579.837341 528.486023,580.471802 528.474304,581.106323 
	C519.393738,582.448303 510.132751,581.823303 500.998535,581.554199 
	C491.847229,581.284607 482.726532,579.978027 473.311310,578.855774 
z"/>
<path fill="#9B9D90" opacity="1.000000" stroke="none" 
	d="
M280.087280,85.256577 
	C273.153900,83.421135 266.182648,80.737785 258.964020,79.276474 
	C251.378845,77.740959 243.539413,77.501686 235.846375,76.440155 
	C232.517822,75.980858 229.277802,74.879951 225.801727,73.787018 
	C233.870834,74.627060 242.136230,75.747086 250.400055,76.878754 
	C251.378036,77.012688 252.354980,77.174873 253.319351,77.384163 
	C261.345978,79.126091 269.382965,80.825119 277.376648,82.707649 
	C278.352844,82.937546 279.091736,84.175285 280.087280,85.256577 
z"/>
<path fill="#767C70" opacity="1.000000" stroke="none" 
	d="
M168.298889,144.505783 
	C172.387619,143.240280 176.734161,141.568542 181.165512,141.300766 
	C189.287064,140.809982 197.458740,141.127411 205.609421,141.147400 
	C210.848419,141.160263 216.214096,140.506882 221.109787,144.036209 
	C220.369293,144.465714 219.289169,145.012436 218.487732,144.739838 
	C204.486038,139.977097 190.099731,143.535187 175.920151,142.794037 
	C173.518753,142.668518 171.038666,144.048355 168.298889,144.505783 
z"/>
<path fill="#9B9D90" opacity="1.000000" stroke="none" 
	d="
M30.736506,151.101105 
	C30.651478,153.813065 29.829479,156.521271 29.763334,159.247803 
	C29.572269,167.123871 29.475182,175.015518 29.781429,182.883911 
	C29.906532,186.098236 31.163813,189.268478 31.688725,192.734421 
	C30.510500,192.123489 28.874643,191.352280 28.700136,190.331284 
	C27.702845,184.496246 26.507406,178.607864 26.441841,172.725754 
	C26.378546,167.047440 27.493111,161.338623 28.330952,155.678818 
	C28.566164,154.089905 29.650133,152.626633 30.736506,151.101105 
z"/>
<path fill="#767C70" opacity="1.000000" stroke="none" 
	d="
M204.705185,290.510681 
	C198.111557,295.190704 190.367386,293.609955 182.895126,293.834808 
	C178.446548,293.968689 173.990646,293.859344 168.282471,293.859344 
	C169.372650,296.984161 170.171417,299.273712 170.794983,301.934814 
	C169.603439,300.581909 168.099426,298.967682 167.679001,297.108459 
	C166.952698,293.896515 168.425110,292.228821 172.039215,292.372070 
	C177.344116,292.582397 182.682495,292.683044 187.972717,292.326843 
	C193.473648,291.956451 198.934280,290.987305 204.705185,290.510681 
z"/>
<path fill="#767C70" opacity="1.000000" stroke="none" 
	d="
M246.631561,274.016663 
	C243.842728,276.530304 240.962219,279.575592 237.461288,281.480774 
	C232.413834,284.227509 226.988419,286.342255 221.582916,288.345123 
	C218.333069,289.549255 214.814575,290.028381 211.032547,290.705353 
	C211.971664,289.560822 213.179886,287.890137 214.637024,287.633667 
	C224.284882,285.935547 233.101791,282.391174 241.128769,276.780090 
	C242.707397,275.676605 244.544678,274.943115 246.631561,274.016663 
z"/>
<path fill="#767C70" opacity="1.000000" stroke="none" 
	d="
M180.994171,339.423218 
	C181.831009,339.791077 183.138306,340.383423 183.532776,341.348816 
	C187.086563,350.045776 190.414825,358.834839 193.962173,367.534546 
	C194.975998,370.020905 196.488495,372.303955 197.615906,375.028870 
	C194.813156,370.875244 191.738586,366.564392 189.620468,361.825989 
	C186.411453,354.647034 183.867691,347.170685 180.994171,339.423218 
z"/>
<path fill="#9B9D90" opacity="1.000000" stroke="none" 
	d="
M347.183044,276.862549 
	C350.322571,270.579315 354.040192,264.426086 357.250244,258.018616 
	C358.797302,254.930588 359.293396,251.330292 360.450439,248.026779 
	C361.067993,246.263626 362.079193,244.638367 363.214905,242.782562 
	C361.047729,252.961044 357.716431,262.948761 351.382904,271.681549 
	C350.118011,273.425690 348.829926,275.152985 347.183044,276.862549 
z"/>
<path fill="#767C70" opacity="1.000000" stroke="none" 
	d="
M309.347168,516.108154 
	C311.464386,516.666260 313.541504,517.569458 316.640533,518.916992 
	C315.841125,512.081909 315.119507,505.911987 314.397888,499.742065 
	C315.031525,499.562683 315.665131,499.383270 316.298767,499.203888 
	C317.516693,500.967010 318.734619,502.730164 319.729187,504.714783 
	C318.897339,506.011139 317.859283,507.049805 317.765076,508.167969 
	C317.530182,510.955780 317.849091,513.786743 317.692780,516.586243 
	C317.617676,517.931824 316.970642,519.245422 316.582642,520.573547 
	C315.233551,520.156921 313.766541,519.947571 312.568115,519.266052 
	C311.343842,518.569763 310.383148,517.410034 309.347168,516.108154 
z"/>
<path fill="#9B9D90" opacity="1.000000" stroke="none" 
	d="
M63.581978,107.940727 
	C60.329613,113.771744 56.730183,119.602203 53.130756,125.432671 
	C52.491993,125.270851 51.853230,125.109039 51.214466,124.947220 
	C51.010319,121.620224 50.933563,118.277641 50.529766,114.975060 
	C50.396641,113.886223 49.418442,112.900696 48.447418,111.975677 
	C48.731884,111.174759 49.395576,110.266098 50.059265,109.357437 
	C50.692490,110.334648 51.782242,111.271957 51.871780,112.296677 
	C52.122185,115.162361 51.958942,118.064201 53.105896,121.227776 
	C56.482231,116.798576 59.858570,112.369377 63.581978,107.940727 
z"/>
<path fill="#767C70" opacity="1.000000" stroke="none" 
	d="
M314.514282,312.074036 
	C314.339600,311.531799 314.328888,310.616730 314.731293,310.366791 
	C324.787354,304.121643 332.341461,295.390289 339.540466,286.119507 
	C339.907440,286.483185 339.920227,286.669220 339.933044,286.855255 
	C333.624512,297.278503 325.310547,305.703766 314.514282,312.074036 
z"/>
<path fill="#9B9D90" opacity="1.000000" stroke="none" 
	d="
M43.442436,214.331940 
	C43.921577,214.605453 44.280937,215.186523 44.340317,215.796783 
	C45.191277,224.541641 45.916256,233.299988 46.890099,242.030701 
	C47.098938,243.903015 48.173378,245.678787 48.685818,247.876129 
	C47.495975,247.070236 45.690361,245.963257 45.566273,244.692139 
	C44.590511,234.696823 43.936371,224.670120 43.442436,214.331940 
z"/>
<path fill="#9B9D90" opacity="1.000000" stroke="none" 
	d="
M102.569321,299.033997 
	C101.446739,298.224670 99.723351,297.105682 99.599709,295.831451 
	C98.593750,285.464203 97.887100,275.067932 97.323196,264.342651 
	C97.871956,264.726654 98.400757,265.428802 98.469261,266.173309 
	C99.328758,275.514160 100.059837,284.867340 100.993523,294.200348 
	C101.146179,295.726318 102.117119,297.170410 102.569321,299.033997 
z"/>
<path fill="#767C70" opacity="1.000000" stroke="none" 
	d="
M426.269043,572.175781 
	C427.158264,572.180115 428.018585,572.798035 428.935455,572.898132 
	C436.968506,573.774780 445.027252,574.435669 453.041870,575.449219 
	C455.318329,575.737000 457.474976,576.972351 459.850677,578.121582 
	C452.311859,577.193787 444.616394,575.869446 436.900818,574.674744 
	C434.948578,574.372498 432.892975,574.696655 430.957458,574.339600 
	C429.338745,574.040955 427.826019,573.167847 426.269043,572.175781 
z"/>
<path fill="#767C70" opacity="1.000000" stroke="none" 
	d="
M219.442703,404.064758 
	C220.634598,405.232117 221.932434,406.651123 222.643875,408.320068 
	C225.783844,415.686249 228.754944,423.124359 231.578674,430.763306 
	C229.638458,428.583008 227.386948,426.391754 226.279022,423.725372 
	C223.656677,417.414124 221.577515,410.877197 219.442703,404.064758 
z"/>
<path fill="#767C70" opacity="1.000000" stroke="none" 
	d="
M356.700256,433.845276 
	C348.838379,431.323456 340.972473,428.473267 333.143524,425.524963 
	C332.313843,425.212555 331.700928,424.324493 331.005798,423.334534 
	C338.907104,425.836151 346.801270,428.676910 354.656219,431.622253 
	C355.460022,431.923645 356.028961,432.851471 356.700256,433.845276 
z"/>
<path fill="#9B9D90" opacity="1.000000" stroke="none" 
	d="
M97.902184,231.729309 
	C97.168007,225.684662 95.695557,219.363266 98.902603,213.177567 
	C99.809410,211.428543 99.012634,208.872955 99.481094,206.796463 
	C99.877357,205.039978 100.973045,203.441299 102.103195,201.663803 
	C101.032440,211.519348 99.617668,221.483856 97.902184,231.729309 
z"/>
<path fill="#767C70" opacity="1.000000" stroke="none" 
	d="
M209.300476,399.136169 
	C211.301453,400.279572 212.828537,399.828613 213.365067,397.566406 
	C213.855270,395.499512 213.453461,393.184570 214.122314,391.208282 
	C214.641525,389.674103 216.204651,388.493225 217.303757,387.155304 
	C218.215225,388.460999 219.267075,389.696106 219.975250,391.104065 
	C220.298767,391.747253 219.944901,392.731140 219.681458,393.960327 
	C218.947159,392.704468 218.429657,391.048798 217.912170,389.393097 
	C217.487976,389.237396 217.063766,389.081726 216.639572,388.926025 
	C216.205444,390.381104 215.681915,391.816559 215.357193,393.295654 
	C214.808701,395.794006 214.656418,398.418854 213.789459,400.790131 
	C213.392288,401.876526 211.693832,402.487183 210.585510,403.313568 
	C210.125397,402.043427 209.665283,400.773315 209.300476,399.136169 
z"/>
<path fill="#767C70" opacity="1.000000" stroke="none" 
	d="
M361.771912,549.751953 
	C369.177002,553.172729 376.702118,556.909363 384.288696,560.981323 
	C377.833099,558.402771 371.294250,555.535706 364.819824,552.529846 
	C363.703491,552.011536 362.860962,550.903503 361.771912,549.751953 
z"/>
<path fill="#767C70" opacity="1.000000" stroke="none" 
	d="
M456.827820,538.803162 
	C449.898804,533.974426 442.973236,528.792542 436.077820,523.257812 
	C443.015747,528.086670 449.923492,533.268311 456.827820,538.803162 
z"/>
<path fill="#767C70" opacity="1.000000" stroke="none" 
	d="
M324.032410,388.579773 
	C322.751373,387.328156 321.430695,385.703949 320.116425,384.074524 
	C316.044189,379.025848 311.974426,373.975189 307.863892,368.579224 
	C308.896362,368.877411 310.296173,369.277588 310.987701,370.205597 
	C315.410431,376.140686 319.677429,382.191803 324.032410,388.579773 
z"/>
<path fill="#767C70" opacity="1.000000" stroke="none" 
	d="
M233.218689,435.213776 
	C238.191223,441.197998 243.164703,447.561768 248.189896,454.274719 
	C243.234283,448.280365 238.226959,441.936829 233.218689,435.213776 
z"/>
<path fill="#767C70" opacity="1.000000" stroke="none" 
	d="
M280.359985,200.092194 
	C286.061462,205.044449 283.061249,211.838318 283.536102,217.975555 
	C283.685272,219.903107 282.030212,221.970245 280.891235,224.125397 
	C282.925446,216.292511 283.112488,208.346954 280.359985,200.092194 
z"/>
<path fill="#9B9D90" opacity="1.000000" stroke="none" 
	d="
M358.004547,156.564636 
	C356.580841,154.677170 354.980133,152.478027 353.686768,150.110962 
	C351.319336,145.778214 349.133514,141.346237 346.829163,136.584137 
	C349.389374,139.671753 352.330566,142.934799 354.486389,146.653183 
	C356.155731,149.532516 356.842529,152.981476 358.004547,156.564636 
z"/>
<path fill="#767C70" opacity="1.000000" stroke="none" 
	d="
M292.143951,349.401428 
	C289.806854,347.668732 287.312317,345.699036 285.059875,343.483246 
	C283.380188,341.830902 282.333130,339.359711 280.433685,338.147003 
	C277.466858,336.252808 277.789520,334.815002 280.438171,332.875549 
	C283.169006,336.643097 285.481659,340.503967 287.990448,344.232849 
	C289.161346,345.973175 290.711945,347.458069 292.143951,349.401428 
z"/>
<path fill="#9B9D90" opacity="1.000000" stroke="none" 
	d="
M314.062378,100.512718 
	C311.265350,99.895454 308.241730,99.276802 305.621948,97.893349 
	C301.914551,95.935547 298.505219,93.413277 294.774231,90.865448 
	C297.242310,91.392769 300.103760,91.805298 302.521912,93.067284 
	C306.504242,95.145607 310.199707,97.773621 314.062378,100.512718 
z"/>
<path fill="#767C70" opacity="1.000000" stroke="none" 
	d="
M264.931763,258.419434 
	C260.890381,264.506073 256.022858,270.006042 248.625092,273.146942 
	C250.079041,271.696350 251.973251,270.279419 253.703964,268.685028 
	C257.379974,265.298523 260.970886,261.819672 264.931763,258.419434 
z"/>
<path fill="#9B9D90" opacity="1.000000" stroke="none" 
	d="
M102.866318,198.833649 
	C103.501404,196.179291 104.127487,193.174835 105.460190,190.525864 
	C107.302551,186.863861 109.677170,183.469650 112.089424,179.757050 
	C112.433266,180.657715 112.968399,182.018509 112.515808,182.824966 
	C109.519684,188.163742 106.311562,193.383545 102.866318,198.833649 
z"/>
<path fill="#767C70" opacity="1.000000" stroke="none" 
	d="
M115.189316,176.809875 
	C119.595688,171.824356 124.345131,166.841293 129.441574,161.845856 
	C125.036514,166.826431 120.284447,171.819366 115.189316,176.809875 
z"/>
<path fill="#767C70" opacity="1.000000" stroke="none" 
	d="
M404.122131,566.947754 
	C410.309357,567.975891 416.588135,569.375977 423.093384,571.046875 
	C420.078735,570.903564 416.837860,570.487976 413.596436,570.076294 
	C411.987274,569.871887 410.318268,569.873718 408.783844,569.419312 
	C407.192749,568.947998 405.731628,568.037842 404.122131,566.947754 
z"/>
<path fill="#767C70" opacity="1.000000" stroke="none" 
	d="
M392.018127,478.555969 
	C391.295135,478.475342 390.291321,478.216614 389.753876,477.570190 
	C386.058563,473.125336 382.460815,468.599396 378.806030,463.761108 
	C384.685394,466.998108 388.936493,472.047974 392.018127,478.555969 
z"/>
<path fill="#767C70" opacity="1.000000" stroke="none" 
	d="
M336.680634,405.742279 
	C332.628113,400.954956 328.776031,395.914001 324.890717,390.520813 
	C325.338501,390.260010 326.058105,390.180176 326.265076,390.468384 
	C329.841187,395.448242 333.354248,400.473389 336.680634,405.742279 
z"/>
<path fill="#767C70" opacity="1.000000" stroke="none" 
	d="
M473.745483,550.837219 
	C468.490051,547.678101 463.255188,544.169250 458.029816,540.296265 
	C463.281555,543.450623 468.523804,546.969055 473.745483,550.837219 
z"/>
<path fill="#9B9D90" opacity="1.000000" stroke="none" 
	d="
M346.489929,133.113480 
	C342.515717,128.973007 338.689148,124.513222 334.796875,119.706100 
	C336.067780,120.155693 337.766296,120.664268 338.673584,121.803162 
	C341.489716,125.338196 344.005341,129.112625 346.489929,133.113480 
z"/>
<path fill="#767C70" opacity="1.000000" stroke="none" 
	d="
M369.979187,451.583435 
	C366.294464,446.966339 362.547241,441.980957 358.799774,436.632141 
	C362.505249,441.250885 366.210999,446.233002 369.979187,451.583435 
z"/>
<path fill="#9B9D90" opacity="1.000000" stroke="none" 
	d="
M31.362488,194.957840 
	C35.643410,199.269501 39.737087,203.933273 43.704079,208.922882 
	C39.443344,204.602463 35.309288,199.956207 31.362488,194.957840 
z"/>
<path fill="#767C70" opacity="1.000000" stroke="none" 
	d="
M170.446106,305.284088 
	C172.402084,310.133820 174.132004,315.284088 175.651749,320.698456 
	C174.604858,320.210022 173.250336,319.589294 173.019531,318.682495 
	C171.919022,314.359131 171.123840,309.958038 170.446106,305.284088 
z"/>
<path fill="#767C70" opacity="1.000000" stroke="none" 
	d="
M148.523163,151.086212 
	C150.503418,149.507935 152.695923,147.499893 155.267731,146.315536 
	C157.837372,145.132172 160.786621,144.773117 163.948364,144.230225 
	C162.925827,145.401230 161.651001,146.722443 160.097610,147.322571 
	C156.436264,148.737030 152.642120,149.807739 148.523163,151.086212 
z"/>
<path fill="#767C70" opacity="1.000000" stroke="none" 
	d="
M257.772247,161.775085 
	C260.582001,163.520981 263.654755,165.393951 266.328278,167.724808 
	C267.589539,168.824417 268.085022,170.802383 268.899475,172.747375 
	C267.846954,172.371033 266.679108,171.765427 265.824463,170.863174 
	C263.110687,167.998245 260.513702,165.022705 257.772247,161.775085 
z"/>
<path fill="#9B9D90" opacity="1.000000" stroke="none" 
	d="
M131.543610,73.118164 
	C128.351364,72.935051 125.473106,72.534897 122.606148,72.603966 
	C120.926857,72.644417 119.265587,73.432861 117.298447,73.668823 
	C120.651062,70.346672 124.980652,69.630440 129.509064,70.318245 
	C130.413361,70.455597 131.083969,72.131653 131.543610,73.118164 
z"/>
<path fill="#9B9D90" opacity="1.000000" stroke="none" 
	d="
M37.824917,129.185913 
	C36.163494,134.488724 34.136997,139.741653 31.845009,145.205322 
	C33.539627,139.989395 35.499737,134.562729 37.824917,129.185913 
z"/>
<path fill="#9B9D90" opacity="1.000000" stroke="none" 
	d="
M363.608856,173.043304 
	C359.799591,168.834030 358.394836,163.498138 358.001343,157.391235 
	C359.316925,159.915588 360.690552,162.834366 361.819244,165.844971 
	C362.650787,168.062790 363.162292,170.400589 363.608856,173.043304 
z"/>
<path fill="#767C70" opacity="1.000000" stroke="none" 
	d="
M226.268860,145.167877 
	C230.494247,146.005600 234.738480,147.141769 238.926895,148.455948 
	C240.021103,148.799286 240.941574,149.696411 241.921936,150.716248 
	C237.687256,149.881454 233.451691,148.735367 229.271851,147.413086 
	C228.181076,147.068039 227.263809,146.174438 226.268860,145.167877 
z"/>
<path fill="#9B9D90" opacity="1.000000" stroke="none" 
	d="
M327.681610,111.905388 
	C323.135651,108.699043 318.621643,105.140465 314.125366,101.235901 
	C318.666565,104.444321 323.190094,107.998734 327.681610,111.905388 
z"/>
<path fill="#767C70" opacity="1.000000" stroke="none" 
	d="
M132.249908,159.824463 
	C135.927368,157.153275 139.987335,154.479538 144.426804,151.824295 
	C140.748337,154.502487 136.690369,157.162186 132.249908,159.824463 
z"/>
<path fill="#767C70" opacity="1.000000" stroke="none" 
	d="
M325.015747,517.376160 
	C326.487183,518.157104 328.296692,519.054443 329.433685,520.485901 
	C331.427856,522.996521 333.009857,525.834595 334.726471,528.883423 
	C331.475983,525.398682 328.263489,521.565857 325.015747,517.376160 
z"/>
<path fill="#767C70" opacity="1.000000" stroke="none" 
	d="
M322.272949,405.736694 
	C323.419281,405.342255 324.843414,404.975739 326.175690,405.187378 
	C329.234161,405.673218 332.247894,406.440857 335.730957,407.139221 
	C332.939423,407.284668 329.691040,407.534668 326.456665,407.412994 
	C325.125305,407.362915 323.824005,406.513184 322.272949,405.736694 
z"/>
<path fill="#9B9D90" opacity="1.000000" stroke="none" 
	d="
M70.285355,287.098053 
	C73.878532,289.300354 77.391052,291.847717 80.884384,294.746460 
	C77.311691,292.546265 73.758194,289.994690 70.285355,287.098053 
z"/>
<path fill="#9B9D90" opacity="1.000000" stroke="none" 
	d="
M53.454681,265.908112 
	C55.800407,269.003754 57.984863,272.452454 60.224945,276.267029 
	C57.951519,273.175629 55.622463,269.718414 53.454681,265.908112 
z"/>
<path fill="#767C70" opacity="1.000000" stroke="none" 
	d="
M485.745972,557.855591 
	C481.778107,556.114197 477.869232,554.027161 473.885864,551.606506 
	C477.809235,553.351868 481.807098,555.430969 485.745972,557.855591 
z"/>
<path fill="#767C70" opacity="1.000000" stroke="none" 
	d="
M280.134094,229.236176 
	C279.049713,232.903824 277.682800,236.799423 275.971680,240.855713 
	C277.035492,237.165649 278.443481,233.314896 280.134094,229.236176 
z"/>
<path fill="#767C70" opacity="1.000000" stroke="none" 
	d="
M241.965820,151.435730 
	C247.405731,150.354996 249.729233,155.698242 253.916748,157.745056 
	C249.924026,155.993866 245.974319,153.883484 241.965820,151.435730 
z"/>
<path fill="#767C70" opacity="1.000000" stroke="none" 
	d="
M303.124573,320.660095 
	C306.323975,317.794342 309.877777,314.944366 313.784363,312.126038 
	C310.584412,314.997040 307.031708,317.836426 303.124573,320.660095 
z"/>
<path fill="#9B9D90" opacity="1.000000" stroke="none" 
	d="
M80.950623,295.481293 
	C84.348389,296.696136 87.793907,298.256866 91.328491,300.153320 
	C87.944496,298.935059 84.471436,297.381134 80.950623,295.481293 
z"/>
<path fill="#767C70" opacity="1.000000" stroke="none" 
	d="
M255.293579,462.148254 
	C257.899139,464.913422 260.503082,468.032806 263.106201,471.499023 
	C260.500916,468.731384 257.896423,465.616913 255.293579,462.148254 
z"/>
<path fill="#767C70" opacity="1.000000" stroke="none" 
	d="
M198.014954,378.377594 
	C200.018768,381.321289 202.056320,384.645508 204.142334,388.336914 
	C202.143417,385.388763 200.096054,382.073456 198.014954,378.377594 
z"/>
<path fill="#767C70" opacity="1.000000" stroke="none" 
	d="
M275.449768,184.051453 
	C277.339722,186.977951 279.033508,190.247925 280.510437,193.752991 
	C279.352020,192.827347 278.172363,191.784561 277.525055,190.478027 
	C276.569183,188.548752 275.992004,186.431885 275.449768,184.051453 
z"/>
<path fill="#767C70" opacity="1.000000" stroke="none" 
	d="
M268.950867,173.481995 
	C271.191742,175.904510 273.495697,178.680237 275.620483,181.704865 
	C273.298828,179.247589 271.156372,176.541382 268.950867,173.481995 
z"/>
<path fill="#767C70" opacity="1.000000" stroke="none" 
	d="
M204.239044,389.220093 
	C205.921295,391.827026 207.538132,394.839386 209.212189,398.211548 
	C207.570831,395.589417 205.872238,392.607452 204.239044,389.220093 
z"/>
<path fill="#9B9D90" opacity="1.000000" stroke="none" 
	d="
M42.851837,119.218903 
	C41.779083,122.522133 40.348763,125.784935 38.577023,129.121674 
	C39.655155,125.856567 41.074711,122.517517 42.851837,119.218903 
z"/>
<path fill="#767C70" opacity="1.000000" stroke="none" 
	d="
M501.161224,566.232544 
	C498.229156,565.048706 495.122406,563.580322 491.870728,561.817993 
	C494.812683,562.998718 497.899597,564.473450 501.161224,566.232544 
z"/>
<path fill="#767C70" opacity="1.000000" stroke="none" 
	d="
M281.244873,332.815491 
	C283.861938,331.127777 286.888092,329.485260 290.280701,327.805725 
	C287.649445,329.466034 284.651703,331.163361 281.244873,332.815491 
z"/>
<path fill="#767C70" opacity="1.000000" stroke="none" 
	d="
M512.781616,572.818970 
	C509.503418,571.730408 506.239044,570.285278 502.928406,568.489990 
	C506.186615,569.580627 509.491058,571.021545 512.781616,572.818970 
z"/>
<path fill="#767C70" opacity="1.000000" stroke="none" 
	d="
M334.836304,529.650513 
	C337.575897,531.823792 340.380310,534.334351 343.234924,537.179443 
	C340.490417,535.005188 337.695740,532.496460 334.836304,529.650513 
z"/>
<path fill="#9B9D90" opacity="1.000000" stroke="none" 
	d="
M94.079185,301.058899 
	C96.572746,301.070831 99.151108,301.460968 102.086372,301.711548 
	C100.744141,304.822784 97.322380,304.766998 94.079185,301.058899 
z"/>
<path fill="#767C70" opacity="1.000000" stroke="none" 
	d="
M522.735352,577.837769 
	C519.838379,576.870361 516.935791,575.546387 513.855103,573.949097 
	C516.694580,574.944336 519.712097,576.212769 522.735352,577.837769 
z"/>
<path fill="#767C70" opacity="1.000000" stroke="none" 
	d="
M319.914001,507.482178 
	C321.563538,509.933777 323.249084,512.759216 324.744354,515.953247 
	C323.019409,513.499939 321.484711,510.677979 319.914001,507.482178 
z"/>
<path fill="#767C70" opacity="1.000000" stroke="none" 
	d="
M378.652008,462.845154 
	C377.022797,461.120575 375.473602,459.027557 373.874390,456.589600 
	C375.460205,458.322021 377.096100,460.399384 378.652008,462.845154 
z"/>
<path fill="#767C70" opacity="1.000000" stroke="none" 
	d="
M343.430908,538.058838 
	C346.307922,539.611877 349.121094,541.499695 351.925873,543.744385 
	C349.067322,542.198792 346.217194,540.296204 343.430908,538.058838 
z"/>
<path fill="#9B9D90" opacity="1.000000" stroke="none" 
	d="
M50.317547,255.155029 
	C51.588768,257.654266 52.734207,260.575439 53.655895,263.754822 
	C49.946198,262.125092 49.833946,258.941315 50.317547,255.155029 
z"/>
<path fill="#767C70" opacity="1.000000" stroke="none" 
	d="
M177.431793,328.132416 
	C178.614441,330.686737 179.742462,333.647034 180.654114,336.986511 
	C179.417542,334.423279 178.397354,331.480835 177.431793,328.132416 
z"/>
<path fill="#767C70" opacity="1.000000" stroke="none" 
	d="
M291.156433,327.699921 
	C293.401886,325.811737 296.014526,323.968048 298.973267,322.278076 
	C296.720795,324.202637 294.122223,325.973541 291.156433,327.699921 
z"/>
<path fill="#767C70" opacity="1.000000" stroke="none" 
	d="
M388.749664,561.887695 
	C391.429077,562.354004 394.243988,563.143982 397.130310,564.301025 
	C394.429535,563.849121 391.657349,563.030212 388.749664,561.887695 
z"/>
<path fill="#767C70" opacity="1.000000" stroke="none" 
	d="
M297.131042,506.225494 
	C299.472229,507.257843 301.779602,508.641022 304.145081,510.356201 
	C301.834503,509.317566 299.465851,507.946930 297.131042,506.225494 
z"/>
<path fill="#9B9D90" opacity="1.000000" stroke="none" 
	d="
M341.615479,285.116028 
	C342.814117,282.776123 344.357574,280.363647 346.173645,277.766968 
	C348.070526,281.945374 344.085114,282.935028 341.615479,285.116028 
z"/>
<path fill="#767C70" opacity="1.000000" stroke="none" 
	d="
M413.259583,500.227539 
	C411.502960,499.026703 409.658142,497.503357 407.806824,495.628662 
	C409.590668,496.819855 411.381042,498.362457 413.259583,500.227539 
z"/>
<path fill="#767C70" opacity="1.000000" stroke="none" 
	d="
M353.136108,545.228394 
	C355.347107,546.108337 357.551300,547.335083 359.878967,548.896484 
	C357.711395,548.012573 355.420349,546.793823 353.136108,545.228394 
z"/>
<path fill="#767C70" opacity="1.000000" stroke="none" 
	d="
M275.247040,242.815460 
	C274.266541,245.099060 272.981598,247.531784 271.328613,249.976685 
	C272.287903,247.647415 273.615265,245.306000 275.247040,242.815460 
z"/>
<path fill="#9B9D90" opacity="1.000000" stroke="none" 
	d="
M125.935883,78.602829 
	C127.229584,76.712608 128.849396,74.936119 130.808578,73.184044 
	C129.519287,75.044487 127.890648,76.880524 125.935883,78.602829 
z"/>
<path fill="#767C70" opacity="1.000000" stroke="none" 
	d="
M268.667236,252.029236 
	C268.047272,254.047150 267.085541,256.083618 265.780334,258.190002 
	C266.399719,256.189209 267.362610,254.118500 268.667236,252.029236 
z"/>
<path fill="#767C70" opacity="1.000000" stroke="none" 
	d="
M302.341187,359.819153 
	C300.473572,358.509186 298.806549,357.011932 297.181793,355.167603 
	C298.996613,356.424377 300.769196,358.028137 302.341187,359.819153 
z"/>
<path fill="#9B9D90" opacity="1.000000" stroke="none" 
	d="
M46.505062,112.906952 
	C45.882793,114.950279 44.899857,117.000908 43.586853,119.127228 
	C44.219322,117.106697 45.181858,115.010475 46.505062,112.906952 
z"/>
<path fill="#767C70" opacity="1.000000" stroke="none" 
	d="
M304.303101,511.131226 
	C305.937958,512.179565 307.548950,513.570007 309.201111,515.289124 
	C307.587921,514.236267 305.933563,512.854797 304.303101,511.131226 
z"/>
<path fill="#9B9D90" opacity="1.000000" stroke="none" 
	d="
M291.873383,90.087151 
	C289.966125,89.649117 287.897461,88.857536 285.766113,87.729980 
	C287.706299,88.173866 289.709137,88.953735 291.873383,90.087151 
z"/>
<path fill="#767C70" opacity="1.000000" stroke="none" 
	d="
M436.056763,522.558716 
	C434.406189,521.474426 432.718964,520.057129 431.043091,518.289551 
	C432.709686,519.368042 434.364868,520.796875 436.056763,522.558716 
z"/>
<path fill="#767C70" opacity="1.000000" stroke="none" 
	d="
M263.997681,473.404541 
	C265.628479,474.518799 267.284454,475.964203 268.913513,477.759094 
	C267.265381,476.650970 265.644104,475.193329 263.997681,473.404541 
z"/>
<path fill="#767C70" opacity="1.000000" stroke="none" 
	d="
M424.830322,511.797333 
	C423.141937,510.736145 421.489960,509.329529 419.828552,507.589844 
	C421.501617,508.655182 423.184143,510.053558 424.830322,511.797333 
z"/>
<path fill="#9B9D90" opacity="1.000000" stroke="none" 
	d="
M334.709412,118.914925 
	C333.020294,117.846794 331.403778,116.430847 329.757111,114.687286 
	C331.411957,115.762146 333.096954,117.164627 334.709412,118.914925 
z"/>
<path fill="#767C70" opacity="1.000000" stroke="none" 
	d="
M307.013611,366.674561 
	C305.366058,365.439392 303.724304,363.870270 302.273376,361.978394 
	C303.982605,363.217316 305.501038,364.778961 307.013611,366.674561 
z"/>
<path fill="#767C70" opacity="1.000000" stroke="none" 
	d="
M407.772156,494.845947 
	C406.107269,493.737640 404.491943,492.285431 402.869476,490.497528 
	C404.515442,491.608582 406.168549,493.055328 407.772156,494.845947 
z"/>
<path fill="#767C70" opacity="1.000000" stroke="none" 
	d="
M297.152161,354.438293 
	C295.521820,353.346741 293.858643,351.920288 292.225037,350.147583 
	C293.876190,351.235352 295.497742,352.669403 297.152161,354.438293 
z"/>
<path fill="#767C70" opacity="1.000000" stroke="none" 
	d="
M280.927155,490.427917 
	C282.583191,491.539337 284.248596,492.986572 285.893799,494.784485 
	C284.227905,493.677979 282.582245,492.220825 280.927155,490.427917 
z"/>
<path fill="#767C70" opacity="1.000000" stroke="none" 
	d="
M490.886200,560.723328 
	C489.200165,560.397827 487.517822,559.705750 485.808411,558.668091 
	C487.484192,559.000549 489.187012,559.678650 490.886200,560.723328 
z"/>
<path fill="#767C70" opacity="1.000000" stroke="none" 
	d="
M402.024231,488.629608 
	C400.654388,487.914764 399.268250,486.861816 397.890625,485.466553 
	C399.268738,486.179993 400.638336,487.235748 402.024231,488.629608 
z"/>
<path fill="#767C70" opacity="1.000000" stroke="none" 
	d="
M287.079590,496.274292 
	C288.369751,497.091339 289.664734,498.246246 290.934753,499.744171 
	C289.634644,498.928833 288.359497,497.770477 287.079590,496.274292 
z"/>
<path fill="#767C70" opacity="1.000000" stroke="none" 
	d="
M417.770264,504.852905 
	C416.465790,504.010925 415.210297,502.830902 413.984985,501.309082 
	C415.283173,502.149841 416.551208,503.332367 417.770264,504.852905 
z"/>
<path fill="#767C70" opacity="1.000000" stroke="none" 
	d="
M292.926331,502.403015 
	C294.327087,503.091675 295.719940,504.123871 297.120148,505.496643 
	C295.724457,504.806946 294.321442,503.776764 292.926331,502.403015 
z"/>
<path fill="#767C70" opacity="1.000000" stroke="none" 
	d="
M373.774811,455.837708 
	C372.495850,454.996246 371.241180,453.815460 370.017029,452.295776 
	C371.298065,453.137360 372.548584,454.317871 373.774811,455.837708 
z"/>
<path fill="#767C70" opacity="1.000000" stroke="none" 
	d="
M395.889740,482.756470 
	C394.599640,481.930450 393.313965,480.766846 392.057159,479.259705 
	C393.355408,480.083710 394.624817,481.251312 395.889740,482.756470 
z"/>
<path fill="#767C70" opacity="1.000000" stroke="none" 
	d="
M270.091858,479.268005 
	C271.380219,480.089050 272.659760,481.250671 273.923950,482.754852 
	C272.633423,481.934479 271.358246,480.771545 270.091858,479.268005 
z"/>
<path fill="#767C70" opacity="1.000000" stroke="none" 
	d="
M429.017151,515.643799 
	C427.633057,514.949219 426.258301,513.913269 424.868103,512.541077 
	C426.243958,513.237366 427.635223,514.269897 429.017151,515.643799 
z"/>
<path fill="#767C70" opacity="1.000000" stroke="none" 
	d="
M250.323471,457.118011 
	C251.281860,457.525940 252.246140,458.268616 253.222488,459.331482 
	C252.266159,458.918671 251.297760,458.185699 250.323471,457.118011 
z"/>
<path fill="#9B9D90" opacity="1.000000" stroke="none" 
	d="
M67.316956,284.081268 
	C68.313606,284.483063 69.280792,285.234863 70.262672,286.304810 
	C69.280739,285.892365 68.284111,285.161835 67.316956,284.081268 
z"/>
<path fill="#9B9D90" opacity="1.000000" stroke="none" 
	d="
M62.282722,279.101379 
	C63.272156,279.515106 64.239883,280.278992 65.228851,281.365417 
	C64.253731,280.942505 63.257370,280.197052 62.282722,279.101379 
z"/>
<path fill="#767C70" opacity="1.000000" stroke="none" 
	d="
M253.879059,158.458359 
	C254.903290,158.879715 255.918304,159.634720 256.923157,160.734772 
	C255.898605,160.317200 254.884232,159.554596 253.879059,158.458359 
z"/>
<path fill="#767C70" opacity="1.000000" stroke="none" 
	d="
M275.916565,485.419128 
	C276.929871,485.857727 277.936035,486.627777 278.923950,487.742981 
	C277.906952,487.308990 276.908173,486.529816 275.916565,485.419128 
z"/>
<path fill="#9B9D90" opacity="1.000000" stroke="none" 
	d="
M285.716003,86.966782 
	C284.856415,86.921181 284.096436,86.566986 283.176666,85.937027 
	C283.949768,85.993568 284.882721,86.325882 285.716003,86.966782 
z"/>
<path fill="#767C70" opacity="1.000000" stroke="none" 
	d="
M468.185669,578.827637 
	C468.891083,578.428955 469.756866,578.277771 470.794067,578.354004 
	C470.092346,578.745972 469.219177,578.910583 468.185669,578.827637 
z"/>
<path fill="#767C70" opacity="1.000000" stroke="none" 
	d="
M175.549744,325.982239 
	C176.246323,326.127686 176.780777,326.568359 177.293076,327.279297 
	C176.643143,327.125519 176.015366,326.701477 175.549744,325.982239 
z"/>
<path fill="#9B9D90" opacity="1.000000" stroke="none" 
	d="
M48.501801,252.891739 
	C49.219009,253.047394 49.775227,253.528671 50.310345,254.292847 
	C49.639763,254.122940 48.990284,253.670151 48.501801,252.891739 
z"/>
<path fill="#767C70" opacity="1.000000" stroke="none" 
	d="
M231.477295,433.006409 
	C232.150818,433.213348 232.652863,433.726288 233.154205,434.515503 
	C232.537598,434.298645 231.921707,433.805542 231.477295,433.006409 
z"/>
<path fill="#9B9D90" opacity="1.000000" stroke="none" 
	d="
M329.722443,113.905243 
	C329.041473,113.804344 328.436401,113.360130 327.796234,112.623917 
	C328.440216,112.741913 329.119263,113.151924 329.722443,113.905243 
z"/>
<path fill="#767C70" opacity="1.000000" stroke="none" 
	d="
M463.769592,578.751465 
	C464.270691,578.385986 464.879578,578.248047 465.726257,578.340027 
	C465.268463,578.706238 464.572937,578.842590 463.769592,578.751465 
z"/>
<path fill="#9B9D90" opacity="1.000000" stroke="none" 
	d="
M65.243332,282.112122 
	C65.925980,282.205322 66.541428,282.644196 67.202766,283.376251 
	C66.557816,283.265564 65.866966,282.861664 65.243332,282.112122 
z"/>
<path fill="#767C70" opacity="1.000000" stroke="none" 
	d="
M301.186981,322.502686 
	C301.347321,321.817871 301.697418,321.331787 302.355774,320.813416 
	C302.234924,321.421234 301.805817,322.061340 301.186981,322.502686 
z"/>
<path fill="#9B9D90" opacity="1.000000" stroke="none" 
	d="
M60.293842,277.076721 
	C60.962463,277.193115 61.555229,277.654999 62.187954,278.411621 
	C61.557934,278.278290 60.887959,277.850250 60.293842,277.076721 
z"/>
<path fill="#767C70" opacity="1.000000" stroke="none" 
	d="
M248.325928,455.105682 
	C248.961624,455.223633 249.549744,455.673370 250.165283,456.415100 
	C249.554596,456.283875 248.916489,455.860687 248.325928,455.105682 
z"/>
<path fill="#767C70" opacity="1.000000" stroke="none" 
	d="
M397.264343,565.152527 
	C397.925171,565.143860 398.534546,565.476624 399.229614,566.070068 
	C398.614532,566.051819 397.913727,565.772888 397.264343,565.152527 
z"/>
<path fill="#767C70" opacity="1.000000" stroke="none" 
	d="
M253.286057,460.122559 
	C253.941010,460.237152 254.544418,460.684784 255.168762,461.427124 
	C254.537979,461.299774 253.886246,460.877655 253.286057,460.122559 
z"/>
<path fill="#767C70" opacity="1.000000" stroke="none" 
	d="
M278.950378,488.403259 
	C279.606476,488.526855 280.297699,488.958344 280.948303,489.735229 
	C280.266968,489.624146 279.626221,489.167633 278.950378,488.403259 
z"/>
<path fill="#767C70" opacity="1.000000" stroke="none" 
	d="
M419.787415,506.842712 
	C419.090363,506.751495 418.440338,506.324860 417.799988,505.585541 
	C418.484619,505.684326 419.159546,506.095795 419.787415,506.842712 
z"/>
<path fill="#767C70" opacity="1.000000" stroke="none" 
	d="
M358.803772,435.846252 
	C358.110413,435.747467 357.481110,435.318359 356.827118,434.591797 
	C357.490906,434.701538 358.179382,435.108734 358.803772,435.846252 
z"/>
<path fill="#9B9D90" opacity="1.000000" stroke="none" 
	d="
M340.186096,286.752167 
	C339.920227,286.669220 339.907440,286.483185 339.868683,286.018066 
	C339.842682,285.738983 340.294067,285.534180 340.526550,285.620728 
	C340.652435,286.021210 340.545776,286.335144 340.186096,286.752167 
z"/>
<path fill="#E6E8D2" opacity="1.000000" stroke="none" 
	d="
M314.947327,458.042542 
	C314.459839,456.846558 313.972351,455.650574 313.243652,453.904724 
	C312.382263,452.877747 311.762146,452.400665 311.142029,451.923584 
	C305.616577,445.446869 300.041229,439.011810 294.587097,432.475555 
	C291.921814,429.281494 289.482147,425.899170 287.258362,422.244629 
	C288.598816,421.946533 289.621216,422.005829 290.643616,422.065125 
	C300.620056,433.531372 310.596497,444.997559 320.798340,457.061035 
	C321.995361,458.441650 322.966949,459.225006 323.938538,460.008362 
	C324.877045,460.891998 325.815552,461.775665 326.854248,463.273285 
	C327.591980,464.265839 328.229462,464.644409 328.866974,465.022980 
	C329.624115,465.655518 330.381256,466.288055 331.118652,467.587830 
	C332.065857,470.021881 332.803955,471.974854 334.053802,473.511597 
	C335.899902,475.781464 338.109863,477.755371 340.069336,479.943604 
	C339.973816,480.031921 339.785583,480.211426 339.440704,480.153259 
	C338.392883,480.065063 337.689972,480.035034 336.987030,480.004974 
	C336.058441,479.173126 335.129852,478.341278 334.105377,476.879517 
	C333.321289,475.838409 332.633087,475.427216 331.944885,475.016022 
	C328.726318,471.887573 325.507751,468.759125 322.158264,464.989380 
	C321.312836,463.925720 320.598358,463.503296 319.883881,463.080872 
	C319.021576,462.213409 318.159241,461.345978 317.176697,459.871460 
	C316.353424,458.857117 315.650360,458.449829 314.947327,458.042542 
z"/>
<path fill="#E1E0D7" opacity="1.000000" stroke="none" 
	d="
M60.412422,179.057617 
	C60.420494,177.939758 60.253315,177.219086 60.456539,176.625153 
	C61.127880,174.663101 61.933022,172.746826 62.686802,170.812988 
	C65.225121,171.998688 68.530777,172.555496 70.131996,174.509216 
	C72.925713,177.917969 68.624596,187.334549 64.187782,188.107880 
	C63.173801,188.284637 61.145786,186.929886 60.827850,185.897202 
	C60.217239,183.913864 60.496628,181.656540 60.412422,179.057617 
z"/>
<path fill="#C4C8B6" opacity="1.000000" stroke="none" 
	d="
M290.455994,421.860474 
	C289.621216,422.005829 288.598816,421.946533 287.311127,421.936615 
	C285.619843,420.990479 283.846466,420.265137 282.826569,418.953796 
	C277.765015,412.445831 272.902191,405.783325 267.928162,398.400757 
	C267.926270,396.749176 267.965576,395.872162 268.002441,394.997559 
	C268.000000,395.000000 267.997345,395.004120 268.205536,395.025269 
	C268.413727,395.046417 268.832245,395.050629 268.832245,395.050629 
	C274.924622,402.633270 281.015350,410.217255 287.111053,417.797241 
	C288.152496,419.092285 289.215363,420.370056 290.455994,421.860474 
z"/>
<path fill="#B4BAA3" opacity="1.000000" stroke="none" 
	d="
M268.004883,394.995117 
	C267.965576,395.872162 267.926270,396.749176 267.840118,398.063599 
	C263.000458,391.635315 258.207642,384.769623 253.833664,377.426178 
	C254.880844,376.925415 255.509186,376.902405 256.137512,376.879395 
	C260.298981,382.707214 264.460419,388.535034 268.727051,394.706726 
	C268.832245,395.050629 268.413727,395.046417 268.076233,394.819366 
	C267.390503,394.609497 267.042267,394.626709 266.694061,394.643890 
	C267.131012,394.760956 267.567932,394.878021 268.004883,394.995117 
z"/>
<path fill="#E6E8D2" opacity="1.000000" stroke="none" 
	d="
M368.003052,503.997498 
	C368.470825,504.604980 368.938568,505.212463 369.700623,506.244904 
	C370.290771,506.817841 370.586609,506.965851 370.882416,507.113861 
	C370.882416,507.113861 371.139221,507.270935 371.116821,507.834747 
	C371.071899,508.969971 371.049347,509.541412 371.026794,510.112823 
	C370.403168,510.038025 369.779541,509.963196 369.016113,509.226105 
	C368.101349,508.125885 367.326416,507.687958 366.551514,507.250031 
	C366.235504,507.196777 366.020538,507.020416 365.878296,506.193665 
	C365.048676,505.081390 364.247375,504.496338 363.446045,503.911316 
	C363.119080,503.667145 362.792084,503.422974 362.243988,502.665100 
	C361.469513,501.721710 360.916138,501.291992 360.362762,500.862305 
	C359.004944,500.412170 357.647156,499.962006 356.169617,498.845306 
	C355.394287,497.780914 354.738708,497.383087 354.083130,496.985260 
	C353.142395,496.120148 352.201691,495.255035 351.195618,493.783020 
	C351.084351,492.781708 351.038452,492.387299 351.334839,491.964661 
	C352.359528,491.998322 353.041931,492.060181 353.724335,492.122070 
	C353.724335,492.122070 353.910736,492.149323 353.942505,492.580933 
	C355.772797,493.934753 357.571320,494.856995 359.369873,495.779236 
	C359.369873,495.779205 359.766663,495.800293 359.907745,496.181824 
	C360.188324,496.861755 360.422760,497.012543 360.752167,497.015686 
	C362.413208,498.526581 364.074249,500.037476 365.856323,502.189362 
	C366.652588,503.219360 367.327820,503.608429 368.003052,503.997498 
z"/>
<path fill="#BEC3B4" opacity="1.000000" stroke="none" 
	d="
M353.739868,491.781067 
	C353.041931,492.060181 352.359528,491.998322 351.339233,491.968872 
	C351.001312,492.001312 351.009399,492.009827 350.930298,491.762695 
	C350.564117,491.340515 350.277039,491.165466 349.994354,490.994598 
	C349.998718,490.998749 350.007263,491.007690 350.006653,490.655762 
	C346.725677,486.820984 343.445282,483.338135 340.164886,479.855316 
	C338.109863,477.755371 335.899902,475.781464 334.053802,473.511597 
	C332.803955,471.974854 332.065857,470.021881 331.221619,467.866455 
	C337.227631,473.635559 343.129211,479.775940 348.982574,485.962006 
	C350.645721,487.719696 352.168335,489.610382 353.739868,491.781067 
z"/>
<path fill="#767C70" opacity="1.000000" stroke="none" 
	d="
M256.053619,376.537811 
	C255.509186,376.902405 254.880844,376.925415 253.789124,377.037659 
	C250.659286,375.136627 246.956100,373.491547 250.758575,368.302216 
	C252.812057,371.412903 254.390884,373.804565 256.053619,376.537811 
z"/>
<path fill="#767C70" opacity="1.000000" stroke="none" 
	d="
M373.306396,508.786377 
	C375.418488,510.331024 377.530609,511.875702 379.664795,513.436584 
	C376.814789,516.419983 376.814789,516.419983 372.165497,510.564209 
	C372.639954,509.582397 372.973175,509.184387 373.306396,508.786377 
z"/>
<path fill="#E6E8D2" opacity="1.000000" stroke="none" 
	d="
M340.069336,479.943604 
	C343.445282,483.338135 346.725677,486.820984 349.704834,490.634552 
	C349.002899,490.959137 348.602173,490.953003 348.201447,490.946899 
	C347.260101,490.140564 346.318726,489.334259 345.179321,487.952698 
	C344.365265,486.898499 343.749237,486.419586 343.133240,485.940674 
	C342.208954,485.151520 341.284698,484.362396 340.182861,482.967590 
	C339.932068,481.645111 339.858826,480.928253 339.785583,480.211426 
	C339.785583,480.211426 339.973816,480.031921 340.069336,479.943604 
z"/>
<path fill="#BEC3B4" opacity="1.000000" stroke="none" 
	d="
M359.216003,495.480591 
	C357.571320,494.856995 355.772797,493.934753 353.913025,492.670410 
	C355.588562,493.279480 357.325378,494.230713 359.216003,495.480591 
z"/>
<path fill="#BEC3B4" opacity="1.000000" stroke="none" 
	d="
M339.440704,480.153259 
	C339.858826,480.928253 339.932068,481.645111 339.986298,482.725037 
	C339.004669,482.273895 338.042053,481.459625 337.033234,480.325165 
	C337.689972,480.035034 338.392883,480.065063 339.440704,480.153259 
z"/>
<path fill="#BEC3B4" opacity="1.000000" stroke="none" 
	d="
M323.908112,459.689972 
	C322.966949,459.225006 321.995361,458.441650 321.017822,457.315277 
	C321.967102,457.772034 322.922394,458.571808 323.908112,459.689972 
z"/>
<path fill="#BEC3B4" opacity="1.000000" stroke="none" 
	d="
M348.242371,491.257721 
	C348.602173,490.953003 349.002899,490.959137 349.705444,490.986481 
	C350.007263,491.007690 349.998718,490.998749 350.086609,491.232056 
	C350.452789,491.646851 350.731110,491.828339 351.009399,492.009827 
	C351.009399,492.009827 351.001312,492.001312 350.996918,491.997131 
	C351.038452,492.387299 351.084351,492.781708 351.106995,493.473083 
	C350.150238,493.036224 349.216766,492.302368 348.242371,491.257721 
z"/>
<path fill="#BEC3B4" opacity="1.000000" stroke="none" 
	d="
M363.427307,504.218933 
	C364.247375,504.496338 365.048676,505.081390 365.856445,505.977905 
	C365.044800,505.701782 364.226685,505.114166 363.427307,504.218933 
z"/>
<path fill="#9B9D90" opacity="1.000000" stroke="none" 
	d="
M311.164917,452.237244 
	C311.762146,452.400665 312.382263,452.877747 312.998657,453.675842 
	C312.392548,453.514893 311.790161,453.032898 311.164917,452.237244 
z"/>
<path fill="#9B9D90" opacity="1.000000" stroke="none" 
	d="
M319.902313,463.396149 
	C320.598358,463.503296 321.312836,463.925720 322.004852,464.686584 
	C321.295197,464.587158 320.607971,464.149292 319.902313,463.396149 
z"/>
<path fill="#BEC3B4" opacity="1.000000" stroke="none" 
	d="
M331.963684,475.328125 
	C332.633087,475.427216 333.321289,475.838409 334.027222,476.574554 
	C333.357452,476.479736 332.669952,476.059967 331.963684,475.328125 
z"/>
<path fill="#9B9D90" opacity="1.000000" stroke="none" 
	d="
M314.941681,458.361115 
	C315.650360,458.449829 316.353424,458.857117 317.047424,459.591675 
	C316.337616,459.505829 315.636810,459.092773 314.941681,458.361115 
z"/>
<path fill="#BEC3B4" opacity="1.000000" stroke="none" 
	d="
M343.182373,486.245728 
	C343.749237,486.419586 344.365265,486.898499 344.986206,487.701233 
	C344.404602,487.533600 343.818085,487.042175 343.182373,486.245728 
z"/>
<path fill="#BEC3B4" opacity="1.000000" stroke="none" 
	d="
M354.088440,497.285645 
	C354.738708,497.383087 355.394287,497.780914 356.064545,498.491608 
	C355.417389,498.398315 354.755585,497.992188 354.088440,497.285645 
z"/>
<path fill="#BEC3B4" opacity="1.000000" stroke="none" 
	d="
M360.371399,501.154755 
	C360.916138,501.291992 361.469513,501.721710 362.042603,502.433777 
	C361.501526,502.293152 360.940765,501.870178 360.371399,501.154755 
z"/>
<path fill="#BEC3B4" opacity="1.000000" stroke="none" 
	d="
M367.978241,503.695618 
	C367.327820,503.608429 366.652588,503.219360 365.955322,502.515442 
	C366.606689,502.598297 367.280060,502.996033 367.978241,503.695618 
z"/>
<path fill="#BEC3B4" opacity="1.000000" stroke="none" 
	d="
M328.867004,464.729065 
	C328.229462,464.644409 327.591980,464.265839 326.938141,463.587708 
	C327.570221,463.670471 328.218628,464.052826 328.867004,464.729065 
z"/>
<path fill="#BEC3B4" opacity="1.000000" stroke="none" 
	d="
M366.669708,507.546997 
	C367.326416,507.687958 368.101349,508.125885 368.848450,508.946655 
	C368.143005,508.834320 367.465454,508.339172 366.669708,507.546997 
z"/>
<path fill="#BEC3B4" opacity="1.000000" stroke="none" 
	d="
M373.132996,508.516968 
	C372.973175,509.184387 372.639954,509.582397 372.040161,510.265930 
	C371.773590,510.551392 371.321472,510.466217 371.174133,510.289520 
	C371.049347,509.541412 371.071899,508.969971 371.169556,507.975708 
	C371.816284,507.784454 372.387909,508.015991 373.132996,508.516968 
z"/>
<path fill="#BEC3B4" opacity="1.000000" stroke="none" 
	d="
M360.794983,496.760376 
	C360.422760,497.012543 360.188324,496.861755 360.019165,496.346313 
	C360.272247,496.254578 360.555023,496.379852 360.794983,496.760376 
z"/>
<path fill="#767C70" opacity="1.000000" stroke="none" 
	d="
M370.794739,506.884888 
	C370.586609,506.965851 370.290771,506.817841 369.946411,506.401611 
	C370.234344,506.204163 370.504089,506.378357 370.794739,506.884888 
z"/>
<path fill="#FEFBF8" opacity="1.000000" stroke="none" 
	d="
M303.939636,403.629150 
	C303.500244,403.349487 303.378784,402.851868 303.257294,402.354279 
	C303.590729,402.706604 303.924133,403.058929 303.939636,403.629150 
z"/>
<path fill="#C4C8B6" opacity="1.000000" stroke="none" 
	d="
M268.002441,394.997559 
	C267.567932,394.878021 267.131012,394.760956 266.694061,394.643890 
	C267.042267,394.626709 267.390503,394.609497 267.868042,394.798218 
	C267.997345,395.004120 268.000000,395.000000 268.002441,394.997559 
z"/>
<path fill="#E6E8D2" opacity="1.000000" stroke="none" 
	d="
M350.930298,491.762695 
	C350.731110,491.828339 350.452789,491.646851 350.082214,491.227905 
	C350.277039,491.165466 350.564117,491.340515 350.930298,491.762695 
z"/>
</svg>